<?xml version="1.0" encoding="utf-8"?>
<!-- Generator: Adobe Illustrator 17.0.0, SVG Export Plug-In . SVG Version: 6.00 Build 0)  -->
<!DOCTYPE svg PUBLIC "-//W3C//DTD SVG 1.1//EN" "http://www.w3.org/Graphics/SVG/1.1/DTD/svg11.dtd">
<svg version="1.1" id="图层_1" xmlns="http://www.w3.org/2000/svg" xmlns:xlink="http://www.w3.org/1999/xlink" x="0px" y="0px"
	 width="424.037px" height="426.157px" viewBox="0 0 424.037 426.157" enable-background="new 0 0 424.037 426.157"
	 xml:space="preserve">
<g>
	<g>
		<path fill="#E6E6E6" d="M213.501,415.218c-111.107,0-201.5-90.393-201.5-201.5s90.393-201.5,201.5-201.5s201.5,90.393,201.5,201.5
			S324.609,415.218,213.501,415.218z M213.501,15.218c-109.453,0-198.5,89.047-198.5,198.5s89.047,198.5,198.5,198.5
			s198.5-89.047,198.5-198.5S322.954,15.218,213.501,15.218z"/>
	</g>
	<g>
		<g>
			<g>
				<g>
					<g>
						<path fill="#E6E6E6" d="M365.111,233.249h-2.799c2.092,1.438,3.152,3.189,3.152,5.243c0,1.29-0.428,2.326-1.241,3.09
							c-0.814,0.789-1.927,1.167-3.316,1.167h-10.725v-2.704h9.854c1.122,0,1.911-0.173,2.375-0.485
							c0.481-0.329,0.699-0.879,0.699-1.635c0-1.669-1.081-3.23-3.255-4.676h-9.673v-2.704h14.929V233.249z"/>
					</g>
					<g>
						<path fill="#E6E6E6" d="M364.63,215.604c0.559,1.8,0.835,3.328,0.835,4.635c0,2.211-0.736,3.986-2.203,5.391
							c-1.467,1.373-3.353,2.071-5.671,2.071c-2.273,0-4.13-0.608-5.572-1.841c-1.451-1.2-2.178-2.786-2.178-4.676
							c0-1.825,0.645-3.222,1.927-4.2c1.274-0.986,3.107-1.471,5.469-1.471l0.834,0.016v9.41c3.559-0.395,5.334-2.129,5.334-5.211
							c0-1.118-0.304-2.499-0.917-4.126H364.63z M356.042,224.834v-6.591c-2.774,0-4.175,1.027-4.175,3.082
							C351.867,223.428,353.268,224.579,356.042,224.834z"/>
					</g>
					<g>
						<path fill="#E6E6E6" d="M365.111,202.923h-2.799c2.092,1.43,3.152,3.189,3.152,5.219c0,1.315-0.428,2.334-1.241,3.123
							c-0.814,0.748-1.927,1.134-3.316,1.134h-10.725v-2.688h9.854c1.122,0,1.911-0.172,2.375-0.493
							c0.481-0.329,0.699-0.871,0.699-1.635c0-1.644-1.081-3.206-3.255-4.66h-9.673v-2.728h14.929V202.923z"/>
					</g>
					<g>
						<path fill="#E6E6E6" d="M364.63,185.254c0.559,1.8,0.835,3.361,0.835,4.652c0,2.202-0.736,3.986-2.203,5.358
							c-1.467,1.397-3.353,2.096-5.671,2.096c-2.273,0-4.13-0.6-5.572-1.833c-1.451-1.208-2.178-2.778-2.178-4.684
							c0-1.8,0.645-3.205,1.927-4.192c1.274-0.978,3.107-1.479,5.469-1.479l0.834,0.024v9.41c3.559-0.386,5.334-2.137,5.334-5.21
							c0-1.126-0.304-2.515-0.917-4.142H364.63z M356.042,194.483v-6.591c-2.774,0-4.175,1.044-4.175,3.098
							C351.867,193.085,353.268,194.253,356.042,194.483z"/>
					</g>
				</g>
				<g>
					<path fill="#E6E6E6" d="M340.76,250.278c-3.214-1.397-6.238-3.32-8.946-5.712l-0.682-0.6l0.534-0.715
						c2.897-3.871,5.046-8.276,6.423-13.051c1.385-4.8,2.092-10.298,2.092-16.289c0-14.235-4.204-25.757-12.488-34.288
						c-8.272-8.547-19.441-12.854-33.182-12.854c-6.115,0-11.794,0.871-16.873,2.613c-5.059,1.734-9.649,4.356-13.663,7.816
						c-4.988,4.315-8.818,9.624-11.341,15.73c-2.515,6.139-3.801,13.199-3.801,20.982c0,14.234,4.187,25.757,12.455,34.254
						c8.259,8.481,19.432,12.788,33.227,12.788c4.516,0,8.839-0.485,12.866-1.438c4.015-0.953,7.738-2.342,11.07-4.15l0.658-0.386
						l0.522,0.584c3.086,3.386,6.747,6.123,10.885,8.12c3.961,1.907,8.395,3.147,13.219,3.666l6.106-14.514
						C346.648,252.381,343.599,251.535,340.76,250.278z M312.39,235.706c-4.282,5.277-10.286,7.964-17.879,7.964
						c-7.561,0-13.565-2.696-17.863-8.013c-4.236-5.244-6.389-12.557-6.389-21.746c0-9.155,2.161-16.486,6.426-21.779
						c4.319-5.35,10.318-8.071,17.826-8.071c7.536,0,13.552,2.712,17.83,8.005c4.261,5.243,6.418,12.599,6.418,21.845
						C318.759,223.165,316.614,230.504,312.39,235.706z"/>
				</g>
				<g>
					<path fill="#E6E6E6" d="M120.826,215.481c-2.313-2.285-5.202-4.265-8.687-5.95c-3.472-1.718-7.573-3.419-12.262-5.153
						c-2.273-0.805-4.344-1.57-6.209-2.284c-1.886-0.74-3.534-1.586-4.964-2.49c-1.434-0.921-2.556-1.956-3.329-3.074
						c-0.777-1.118-1.184-2.515-1.184-4.183c0-2.786,1.069-4.857,3.206-6.188c2.133-1.348,6.348-2.934,12.664-1.775
						c4.15,0.781,7.59,2.465,11.296,7.117l14.09-11.218c-5.531-7.315-14.415-13.511-28.846-13.511c-5.145,0-9.743,0.625-13.84,1.891
						c-4.085,1.249-7.573,3.057-10.438,5.407c-2.88,2.367-5.099,5.202-6.665,8.564c-1.557,3.353-2.346,7.109-2.346,11.292
						c0,4.175,0.735,7.725,2.219,10.643c1.475,2.917,3.394,5.399,5.732,7.437c2.359,2.047,5.018,3.748,7.972,5.096
						c2.955,1.339,5.926,2.54,8.88,3.583c6.792,2.252,11.584,4.364,14.366,6.353c2.778,1.948,4.171,4.413,4.171,7.355
						c0,1.406-0.477,3.994-2.564,5.967c-2.001,1.866-5.831,3.633-12.069,3.435c-5.938-0.156-11.567-2.646-15.874-7.092
						l-14.608,11.67c5.864,6.903,15.27,12.78,30.482,12.78c11.937,0,20.858-2.318,26.78-6.985
						c5.909-4.635,8.868-11.185,8.868-19.651c0-4.331-0.551-8.037-1.681-11.086C124.845,220.379,123.131,217.724,120.826,215.481z"
						/>
				</g>
			</g>
			<g>
				<path fill="#E6E6E6" d="M218.107,190.661v53.009c-1.216,0.164-2.609,0.329-4.171,0.46c-1.565,0.107-3.057,0.205-4.446,0.205
					c-4.516,0-7.208-1.471-9.267-4.183c-2.026-2.704-2.49-7.331-2.49-13.593v-22.609v-13.289v-0.016h-31.057l-5.593,13.306h17.209
					h11.378l-11.378,9.081v15.87c0,4.709,0.481,9.024,1.442,12.936c0.945,3.92,2.556,7.298,4.828,10.117
					c2.256,2.852,5.317,5.046,9.184,6.608c3.887,1.562,8.744,2.35,14.575,2.35c5.741,0,11.222-0.427,16.449-1.241
					c5.219-0.839,9.484-1.726,12.792-2.671v-66.339H218.107z"/>
			</g>
			<g>
				<path fill="#E6E6E6" d="M159.736,244.27c-1.66-2.26-2.338-6.238-2.338-11.333v-28.986v-13.306v-18.804l-40.217,32.11h20.764
					v30.901c0,3.83,0.476,7.347,1.438,10.544c0.958,3.18,2.56,5.926,4.828,8.227c2.264,2.301,5.326,4.085,9.197,5.358
					c3.871,1.306,8.736,1.931,14.559,1.931c1.373,0,2.655-0.132,3.986-0.172v-13.445c-0.958,0.049-1.936,0.09-2.807,0.09
					C164.618,247.385,161.376,246.546,159.736,244.27z"/>
			</g>
		</g>
	</g>
	<g>
		<g>
			<g>
				<g>
					<g>
						<path fill="#E6E6E6" d="M273.362,115.289h-1.105c0.826,0.568,1.245,1.259,1.245,2.07c0,0.509-0.169,0.918-0.49,1.22
							c-0.321,0.312-0.761,0.461-1.309,0.461h-4.235v-1.068h3.891c0.443,0,0.754-0.068,0.938-0.191
							c0.19-0.13,0.276-0.347,0.276-0.646c0-0.659-0.427-1.275-1.285-1.846h-3.819v-1.068h5.894V115.289z"/>
					</g>
					<g>
						<path fill="#E6E6E6" d="M273.172,108.323c0.221,0.711,0.33,1.314,0.33,1.83c0,0.873-0.29,1.574-0.87,2.129
							c-0.579,0.542-1.324,0.818-2.239,0.818c-0.897,0-1.631-0.24-2.2-0.727c-0.573-0.474-0.86-1.1-0.86-1.846
							c0-0.72,0.255-1.272,0.761-1.658c0.503-0.389,1.227-0.581,2.16-0.581l0.329,0.006v3.716c1.405-0.156,2.106-0.84,2.106-2.057
							c0-0.441-0.12-0.987-0.362-1.629H273.172z M269.781,111.967v-2.602c-1.095,0-1.648,0.406-1.648,1.217
							C268.133,111.412,268.686,111.866,269.781,111.967z"/>
					</g>
					<g>
						<path fill="#E6E6E6" d="M273.362,103.316h-1.105c0.826,0.565,1.245,1.259,1.245,2.061c0,0.519-0.169,0.922-0.49,1.233
							c-0.321,0.295-0.761,0.448-1.309,0.448h-4.235v-1.061h3.891c0.443,0,0.754-0.068,0.938-0.195
							c0.19-0.13,0.276-0.344,0.276-0.646c0-0.649-0.427-1.266-1.285-1.84h-3.819v-1.077h5.894V103.316z"/>
					</g>
					<g>
						<path fill="#E6E6E6" d="M273.172,96.339c0.221,0.711,0.33,1.327,0.33,1.837c0,0.87-0.29,1.574-0.87,2.116
							c-0.579,0.552-1.324,0.828-2.239,0.828c-0.897,0-1.631-0.237-2.2-0.724c-0.573-0.477-0.86-1.097-0.86-1.85
							c0-0.711,0.255-1.265,0.761-1.655c0.503-0.386,1.227-0.584,2.16-0.584l0.329,0.01v3.715c1.405-0.152,2.106-0.844,2.106-2.057
							c0-0.445-0.12-0.993-0.362-1.635H273.172z M269.781,99.983v-2.602c-1.095,0-1.648,0.412-1.648,1.223
							C268.133,99.431,268.686,99.892,269.781,99.983z"/>
					</g>
				</g>
				<g>
					<path fill="#E6E6E6" d="M263.747,122.013c-1.269-0.552-2.463-1.311-3.532-2.255l-0.269-0.237l0.211-0.282
						c1.144-1.528,1.992-3.268,2.536-5.153c0.547-1.895,0.826-4.066,0.826-6.431c0-5.62-1.66-10.17-4.931-13.538
						c-3.266-3.375-7.676-5.075-13.101-5.075c-2.414,0-4.657,0.344-6.662,1.032c-1.997,0.685-3.81,1.72-5.395,3.086
						c-1.97,1.704-3.482,3.8-4.478,6.211c-0.993,2.424-1.501,5.211-1.501,8.284c0,5.62,1.653,10.17,4.918,13.525
						c3.261,3.349,7.672,5.049,13.119,5.049c1.783,0,3.49-0.191,5.08-0.568c1.585-0.376,3.055-0.925,4.371-1.639l0.26-0.153
						l0.206,0.23c1.218,1.337,2.664,2.417,4.298,3.206c1.564,0.753,3.315,1.243,5.219,1.447l2.411-5.73
						C266.072,122.843,264.868,122.509,263.747,122.013z M252.546,116.26c-1.691,2.083-4.061,3.144-7.059,3.144
						c-2.985,0-5.356-1.064-7.053-3.164c-1.673-2.07-2.523-4.958-2.523-8.586c0-3.615,0.853-6.509,2.537-8.599
						c1.705-2.112,4.074-3.187,7.038-3.187c2.976,0,5.351,1.071,7.04,3.161c1.682,2.07,2.534,4.974,2.534,8.625
						C255.06,111.308,254.214,114.206,252.546,116.26z"/>
				</g>
				<g>
					<path fill="#E6E6E6" d="M176.91,108.274c-0.913-0.902-2.054-1.684-3.43-2.349c-1.371-0.678-2.99-1.35-4.841-2.035
						c-0.897-0.318-1.715-0.62-2.452-0.902c-0.745-0.292-1.395-0.626-1.96-0.983c-0.566-0.363-1.009-0.772-1.314-1.214
						c-0.307-0.441-0.467-0.993-0.467-1.652c0-1.1,0.422-1.918,1.266-2.443c0.842-0.532,2.507-1.158,5-0.701
						c1.639,0.308,2.997,0.973,4.46,2.81l5.563-4.429c-2.184-2.888-5.692-5.335-11.389-5.335c-2.031,0-3.847,0.247-5.465,0.746
						c-1.613,0.493-2.99,1.207-4.121,2.135c-1.137,0.935-2.013,2.054-2.632,3.381c-0.615,1.324-0.926,2.807-0.926,4.458
						c0,1.648,0.29,3.05,0.876,4.202c0.582,1.152,1.34,2.132,2.263,2.937c0.931,0.808,1.981,1.48,3.147,2.012
						c1.167,0.529,2.34,1.003,3.506,1.415c2.682,0.889,4.574,1.723,5.672,2.508c1.097,0.769,1.647,1.742,1.647,2.904
						c0,0.555-0.188,1.577-1.012,2.356c-0.79,0.737-2.302,1.434-4.765,1.356c-2.344-0.062-4.567-1.045-6.268-2.8l-5.768,4.608
						c2.315,2.726,6.029,5.046,12.035,5.046c4.713,0,8.236-0.915,10.573-2.758c2.333-1.83,3.501-4.416,3.501-7.759
						c0-1.71-0.217-3.173-0.664-4.377C178.497,110.208,177.82,109.16,176.91,108.274z"/>
				</g>
			</g>
			<g>
				<path fill="#E6E6E6" d="M215.32,98.474v20.93c-0.48,0.065-1.03,0.13-1.647,0.182c-0.618,0.042-1.207,0.081-1.755,0.081
					c-1.783,0-2.846-0.581-3.659-1.652c-0.8-1.068-0.983-2.894-0.983-5.367v-8.927v-5.247v-0.006h-12.262l-2.208,5.253h6.795h4.493
					l-4.493,3.586v6.266c0,1.859,0.19,3.563,0.569,5.107c0.373,1.548,1.009,2.882,1.906,3.994c0.891,1.126,2.099,1.992,3.626,2.609
					c1.535,0.617,3.453,0.928,5.755,0.928c2.267,0,4.431-0.169,6.495-0.49c2.061-0.331,3.745-0.681,5.051-1.055V98.474H215.32z"/>
			</g>
			<g>
				<path fill="#E6E6E6" d="M192.273,119.641c-0.656-0.892-0.923-2.463-0.923-4.475v-11.445v-5.253v-7.424l-15.879,12.678h8.198
					v12.201c0,1.512,0.188,2.901,0.568,4.163c0.378,1.256,1.011,2.34,1.906,3.248c0.894,0.908,2.103,1.613,3.631,2.116
					c1.528,0.516,3.449,0.763,5.748,0.763c0.542,0,1.048-0.052,1.574-0.068v-5.309c-0.378,0.019-0.764,0.036-1.108,0.036
					C194.201,120.871,192.92,120.54,192.273,119.641z"/>
			</g>
		</g>
	</g>
	<g>
		<path fill="#E6E6E6" d="M128.131,306.1v-8.766h17.359c-0.459-1.604-0.975-2.979-1.547-4.125l5.5-0.688
			c0.113,0.344,0.285,0.803,0.516,1.375c0.572,1.49,0.916,2.637,1.031,3.438h15.984v8.766h-4.641v-4.984H132.6v4.984H128.131z
			 M158.725,333.6v-1.891h-21.312v2.234h-4.641v-29.219h28.875v11.688h-24.234v3.609h25.953V333.6H158.725z M137.412,308.334v4.469
			h19.594v-4.469H137.412z M158.725,323.631h-21.312v4.812h21.312V323.631z"/>
		<path fill="#E6E6E6" d="M171.443,303.693v-4.469h18.734c-0.688-1.832-1.434-3.781-2.234-5.844l5.328-0.516
			c0.688,1.605,1.488,3.725,2.406,6.359h15.984v4.469h-24.75c0,2.062-0.115,4.24-0.344,6.531h20.109
			c-0.115,2.75-0.344,6.762-0.688,12.031c-0.115,1.375-0.172,2.35-0.172,2.922c-0.231,5.156-3.094,7.676-8.594,7.562
			c-1.031,0-2.35,0.057-3.953,0.172c-1.49,0-2.693,0-3.609,0c-0.115-0.803-0.403-2.062-0.859-3.781
			c-0.115-0.229-0.172-0.457-0.172-0.688c0.8,0,1.947,0,3.438,0c1.488,0.115,2.691,0.172,3.609,0.172
			c3.438,0.23,5.213-1.375,5.328-4.812c0.344-2.75,0.516-5.844,0.516-9.281h-15.297c-0.459,8.021-4.412,14.551-11.859,19.594
			l-3.781-3.609c7.332-4.469,11-10.77,11-18.906c0.229-3.207,0.344-5.844,0.344-7.906H171.443z"/>
		<path fill="#E6E6E6" d="M215.787,321.568c-0.459-1.375-0.918-2.863-1.375-4.469c2.979-2.979,5.672-7.16,8.078-12.547l3.266,1.891
			c-0.344,0.803-0.975,2.062-1.891,3.781c-0.344,0.803-0.631,1.375-0.859,1.719v22h-3.953v-16.328
			c-0.575,0.803-1.547,1.949-2.922,3.438C216.016,321.283,215.9,321.455,215.787,321.568z M216.475,307.303
			c-0.115-0.801-0.516-1.891-1.203-3.266c-0.231-0.457-0.403-0.801-0.516-1.031c2.863-2.52,5.385-5.9,7.562-10.141l3.438,2.234
			C223.119,300.027,220.025,304.096,216.475,307.303z M226.1,333.428c-0.688-1.031-1.547-2.062-2.578-3.094
			c2.635-1.719,3.838-5.041,3.609-9.969v-2.922h12.031v7.734c0.344-0.344,1.088-0.973,2.234-1.891
			c0.457-0.344,0.8-0.629,1.031-0.859c0.229,1.262,0.4,2.693,0.516,4.297c-2.637,1.719-4.756,3.322-6.359,4.812l-2.062-2.922
			c0.688-0.688,1.031-1.719,1.031-3.094v-4.469h-4.812v1.375C231.084,326.783,229.537,330.447,226.1,333.428z M225.928,307.303
			v-10.828h3.094v7.219h2.75v-10.312h3.609v10.312h2.75v-7.219h3.094v10.828H225.928z M226.271,314.178v-3.781h14.438v3.781H226.271
			z M242.084,312.975c-0.115-0.457-0.575-1.316-1.375-2.578c-0.231-0.572-0.403-0.973-0.516-1.203
			c2.75-4.582,4.697-10.025,5.844-16.328l3.953,0.516c-0.575,2.406-1.203,4.699-1.891,6.875h8.422v3.953h-1.891
			c-0.459,7.678-1.778,13.809-3.953,18.391c1.488,2.637,3.494,4.928,6.016,6.875c-0.344,0.572-0.859,1.547-1.547,2.922
			c-0.231,0.572-0.403,0.973-0.516,1.203c-2.981-2.865-5.043-5.27-6.188-7.219c-1.031,1.719-3.153,4.238-6.359,7.562
			c-1.146-1.719-2.006-2.98-2.578-3.781c2.979-2.406,5.269-4.984,6.875-7.734c-1.375-3.207-2.293-7.104-2.75-11.688
			c-0.115,0.23-0.344,0.574-0.688,1.031C242.6,312.346,242.312,312.746,242.084,312.975z M248.615,318.131
			c1.144-3.207,2.003-7.848,2.578-13.922h-4.469l-0.516,1.203C246.665,310.684,247.469,314.924,248.615,318.131z"/>
		<path fill="#E6E6E6" d="M263.396,333.771v-21.828c-1.146,2.062-2.406,4.012-3.781,5.844c-0.344-1.832-0.688-3.781-1.031-5.844
			c3.322-5.27,6.016-11.629,8.078-19.078l4.469,1.203c-0.918,3.209-2.062,6.359-3.438,9.453v30.25H263.396z M270.959,301.803v-4.125
			h12.375l-1.547-4.297l4.984-0.516l1.719,4.812h11.688v4.125H270.959z M272.85,308.506v-3.609h25.094v3.609H272.85z
			 M272.85,315.381v-3.609h25.094v3.609H272.85z M273.021,333.771v-15.125h24.75v15.125h-4.297v-2.234h-16.156v2.234H273.021z
			 M277.318,322.428v5.672h16.156v-5.672H277.318z"/>
	</g>
</g>
</svg>
