<?xml version="1.0" encoding="utf-8"?>
<!-- Generator: Adobe Illustrator 17.0.0, SVG Export Plug-In . SVG Version: 6.00 Build 0)  -->
<!DOCTYPE svg PUBLIC "-//W3C//DTD SVG 1.1//EN" "http://www.w3.org/Graphics/SVG/1.1/DTD/svg11.dtd">
<svg version="1.1" id="图层_1" xmlns="http://www.w3.org/2000/svg" xmlns:xlink="http://www.w3.org/1999/xlink" viewBox="-597 207 200 200" xml:space="preserve">
   <g>
     <path fill="#fff" d="M-457.939,274.732c1.011,0,2.003,0.019,2.995,0.066c-5.247-28.569-34.757-50.441-70.375-50.441
       c-39.328,0-71.202,26.661-71.202,59.551c0,19.283,10.955,36.429,27.948,47.308c0.22,0.138,0.653,0.41,0.653,0.41l-6.882,21.553
       l25.74-13.111c0,0,0.806,0.233,1.211,0.348c7.078,1.97,14.656,3.038,22.531,3.038c1.607,0,3.2-0.062,4.784-0.148
       c-1.459-4.526-2.261-9.291-2.261-14.208C-522.796,299.074-493.75,274.732-457.939,274.732z M-500.542,253.718
       c5.523,0,9.992,4.331,9.992,9.682c0,5.341-4.469,9.682-9.992,9.682c-5.528,0-9.996-4.34-9.996-9.682
       C-510.539,258.048-506.07,253.718-500.542,253.718z M-550.097,273.082c-5.523,0-9.996-4.34-9.996-9.682
       c0-5.352,4.474-9.682,9.996-9.682c5.528,0,10.007,4.331,10.007,9.682C-540.09,268.741-544.568,273.082-550.097,273.082z"/>
   </g>
   <path fill="#fff" d="M-517.559,329.451c0,27.786,26.937,50.312,60.163,50.312c6.648,0,13.049-0.906,19.03-2.575
     c0.343-0.091,1.021-0.296,1.021-0.296l21.739,11.084l-5.809-18.21c0,0,0.372-0.233,0.553-0.348
     c14.346-9.191,23.609-23.671,23.609-39.968c0-27.782-26.928-50.303-60.142-50.303
     C-490.622,279.148-517.559,301.669-517.559,329.451z M-444.919,312.124c0-4.512,3.777-8.17,8.442-8.17
     c4.674,0,8.452,3.658,8.452,8.17c0,4.521-3.778,8.184-8.452,8.184C-441.142,320.308-444.919,316.645-444.919,312.124z
      M-486.783,312.124c0-4.512,3.782-8.17,8.447-8.17c4.669,0,8.452,3.658,8.452,8.17c0,4.521-3.782,8.184-8.452,8.184
     C-483.001,320.308-486.783,316.645-486.783,312.124z"/>
</svg>
