<?xml version="1.0" encoding="utf-8"?>
<!-- Generator: Adobe Illustrator 17.0.0, SVG Export Plug-In . SVG Version: 6.00 Build 0)  -->
<!DOCTYPE svg PUBLIC "-//W3C//DTD SVG 1.1//EN" "http://www.w3.org/Graphics/SVG/1.1/DTD/svg11.dtd">
<svg version="1.1" xmlns="http://www.w3.org/2000/svg" xmlns:xlink="http://www.w3.org/1999/xlink" x="0px" y="0px" width="66px"
	 height="66.667px" viewBox="0 0 66 66.667" enable-background="new 0 0 66 66.667" xml:space="preserve">
<g id="Layer_1">
	<g>
		<path fill="#F7F8F8" d="M33,1.006c-17.673,0-32,14.327-32,32c0,17.673,14.327,32,32,32s32-14.327,32-32
			C65,15.333,50.673,1.006,33,1.006z M45.971,49.847c-1.206,0.898-4.384,0.932-5.739,0.003c1.318-9.664-8.489-9.739-7.865,0.001
			c-1.26,1.028-4.255,0.699-5.639-0.037c0.095-5.816,0.524-12.847-1.422-14.718c-2.588-2.489-7.436,5.24-8.035,11.827
			c-1.054,0.047-1.835-0.137-2.147-0.823c-1.347-29.269,9.882-32.513,19.838-29.893c4.228,5.318,3.369,13.125-4.641,17.591
			c11.603-3.144,8.908-13.524,8.01-16.818C48.511,21.172,56.621,31.428,45.971,49.847z"/>
		<circle fill="#F7F8F8" cx="22.087" cy="24.99" r="1.123"/>
	</g>
</g>
<g id="Layer_2">
</g>
</svg>
