<?xml version="1.0" encoding="utf-8"?>
<!-- Generator: Adobe Illustrator 17.0.0, SVG Export Plug-In . SVG Version: 6.00 Build 0)  -->
<!DOCTYPE svg PUBLIC "-//W3C//DTD SVG 1.1//EN" "http://www.w3.org/Graphics/SVG/1.1/DTD/svg11.dtd">
<svg version="1.1" id="图层_1" xmlns="http://www.w3.org/2000/svg" xmlns:xlink="http://www.w3.org/1999/xlink" x="0px" y="0px"
	 width="424.037px" height="426.157px" viewBox="0 0 424.037 426.157" enable-background="new 0 0 424.037 426.157"
	 xml:space="preserve">
<g>
	<g>
		<path fill="#E6E6E6" d="M213.501,415.218c-111.107,0-201.5-90.393-201.5-201.5s90.393-201.5,201.5-201.5s201.5,90.393,201.5,201.5
			S324.609,415.218,213.501,415.218z M213.501,15.218c-109.453,0-198.5,89.047-198.5,198.5s89.047,198.5,198.5,198.5
			s198.5-89.047,198.5-198.5S322.954,15.218,213.501,15.218z"/>
	</g>
	<g>
		<path fill="#E6E6E6" d="M101.152,189.774v-10.475h30.057l-9.108-11.841l12.295-2.732c3.031,3.039,6.98,7.898,11.841,14.573h-0.456
			h20.038c4.248-5.465,7.891-10.317,10.93-14.573l13.207,2.732c-0.911,1.217-2.583,3.345-5.009,6.376
			c-2.128,2.434-3.644,4.255-4.554,5.465h30.057v10.475H101.152z M107.983,274.023v-74.687h49.639v59.658
			c0.299,8.197-3.949,12.595-12.751,13.206c-3.644,0-8.354,0-14.118,0c0-1.217-0.306-3.038-0.911-5.465
			c-0.306-2.434-0.612-4.255-0.911-5.465c2.121,0.299,5.92,0.456,11.385,0.456c4.248,0.299,6.219-1.21,5.92-4.555v-8.197h-27.324
			v25.048H107.983z M118.912,209.356v10.474h27.324v-10.474H118.912z M118.912,228.938v10.475h27.324v-10.475H118.912z
			 M169.007,251.708v-50.094h10.474v50.094H169.007z M173.105,272.201l-1.821-11.385c1.209,0,3.031,0,5.465,0
			c3.031,0.299,5.465,0.455,7.286,0.455c5.764,0.299,8.496-2.12,8.197-7.286v-57.38h11.385v60.112
			c0.604,10.317-4.255,15.483-14.573,15.483C183.878,272.201,178.57,272.201,173.105,272.201z"/>
		<path fill="#E6E6E6" d="M218.645,264.004l-1.822-10.93l18.216-2.732c3.644-16.692,6.675-32.788,9.108-48.272l10.019,1.822
			c-0.612,2.127-1.366,5.621-2.277,10.474c-3.644,14.879-6.226,26.413-7.742,34.61c3.643-0.299,7.286-0.91,10.929-1.821
			c0,1.522-0.156,3.494-0.455,5.92c0,2.128,0,3.8,0,5.01c-6.376,1.217-16.096,2.732-29.146,4.554
			C222.438,263.243,220.161,263.698,218.645,264.004z M218.19,196.149v-10.474h36.887v10.474H218.19z M226.387,243.51
			c-0.612-4.554-1.672-11.078-3.188-19.582c-1.522-8.496-2.732-15.028-3.643-19.582l9.108-1.366
			c1.209,6.682,2.882,16.096,5.009,28.235c0.911,4.554,1.516,8.047,1.822,10.474L226.387,243.51z M234.129,184.764
			c-0.306-0.911-0.761-2.277-1.366-4.099c-0.911-2.732-2.434-7.13-4.554-13.207l10.93-2.276c2.121,5.465,4.099,11.086,5.92,16.85
			L234.129,184.764z M257.809,214.821v-10.02h69.676v10.02h-31.422l-2.277,9.563h29.601v36.432
			c0.299,7.892-3.344,11.99-10.93,12.296c-2.732,0-6.077,0-10.019,0c-0.306-1.821-0.761-3.949-1.366-6.376h-5.465v-32.333h-8.653
			v33.244h-9.108v-33.244h-8.652v39.164h-10.019v-49.183h23.226l1.822-9.563H257.809z M261.453,195.694v-25.047h10.474v15.028
			h14.117v-20.493h10.93v20.493h13.662v-15.028h10.93v25.047H261.453z M313.823,234.403h-9.108v28.69c1.516,0,2.732,0,3.643,0
			c3.942,0,5.764-1.366,5.465-4.099V234.403z"/>
	</g>
	<g>
		<g>
			<g>
				<g>
					<g>
						<path fill="#E6E6E6" d="M273.362,115.289h-1.105c0.826,0.568,1.245,1.259,1.245,2.07c0,0.509-0.169,0.918-0.49,1.22
							c-0.321,0.312-0.761,0.461-1.309,0.461h-4.235v-1.068h3.891c0.443,0,0.754-0.068,0.938-0.191
							c0.19-0.13,0.276-0.347,0.276-0.646c0-0.659-0.427-1.275-1.285-1.846h-3.819v-1.068h5.894V115.289z"/>
					</g>
					<g>
						<path fill="#E6E6E6" d="M273.172,108.323c0.221,0.711,0.33,1.314,0.33,1.83c0,0.873-0.29,1.574-0.87,2.129
							c-0.579,0.542-1.324,0.818-2.239,0.818c-0.897,0-1.631-0.24-2.2-0.727c-0.573-0.474-0.86-1.1-0.86-1.846
							c0-0.72,0.255-1.272,0.761-1.658c0.503-0.389,1.227-0.581,2.16-0.581l0.329,0.006v3.716c1.405-0.156,2.106-0.84,2.106-2.057
							c0-0.441-0.12-0.987-0.362-1.629H273.172z M269.781,111.967v-2.602c-1.095,0-1.648,0.406-1.648,1.217
							C268.133,111.412,268.686,111.866,269.781,111.967z"/>
					</g>
					<g>
						<path fill="#E6E6E6" d="M273.362,103.316h-1.105c0.826,0.565,1.245,1.259,1.245,2.061c0,0.519-0.169,0.922-0.49,1.233
							c-0.321,0.295-0.761,0.448-1.309,0.448h-4.235v-1.061h3.891c0.443,0,0.754-0.068,0.938-0.195
							c0.19-0.13,0.276-0.344,0.276-0.646c0-0.649-0.427-1.266-1.285-1.84h-3.819v-1.077h5.894V103.316z"/>
					</g>
					<g>
						<path fill="#E6E6E6" d="M273.172,96.339c0.221,0.711,0.33,1.327,0.33,1.837c0,0.87-0.29,1.574-0.87,2.116
							c-0.579,0.552-1.324,0.828-2.239,0.828c-0.897,0-1.631-0.237-2.2-0.724c-0.573-0.477-0.86-1.097-0.86-1.85
							c0-0.711,0.255-1.265,0.761-1.655c0.503-0.386,1.227-0.584,2.16-0.584l0.329,0.01v3.715c1.405-0.152,2.106-0.844,2.106-2.057
							c0-0.445-0.12-0.993-0.362-1.635H273.172z M269.781,99.983v-2.602c-1.095,0-1.648,0.412-1.648,1.223
							C268.133,99.431,268.686,99.892,269.781,99.983z"/>
					</g>
				</g>
				<g>
					<path fill="#E6E6E6" d="M263.747,122.013c-1.269-0.552-2.463-1.311-3.532-2.255l-0.269-0.237l0.211-0.282
						c1.144-1.528,1.992-3.268,2.536-5.153c0.547-1.895,0.826-4.066,0.826-6.431c0-5.62-1.66-10.17-4.931-13.538
						c-3.266-3.375-7.676-5.075-13.101-5.075c-2.414,0-4.657,0.344-6.662,1.032c-1.997,0.685-3.81,1.72-5.395,3.086
						c-1.97,1.704-3.482,3.8-4.478,6.211c-0.993,2.424-1.501,5.211-1.501,8.284c0,5.62,1.653,10.17,4.918,13.525
						c3.261,3.349,7.672,5.049,13.119,5.049c1.783,0,3.49-0.191,5.08-0.568c1.585-0.376,3.055-0.925,4.371-1.639l0.26-0.153
						l0.206,0.23c1.218,1.337,2.664,2.417,4.298,3.206c1.564,0.753,3.315,1.243,5.219,1.447l2.411-5.73
						C266.072,122.843,264.868,122.509,263.747,122.013z M252.546,116.26c-1.691,2.083-4.061,3.144-7.059,3.144
						c-2.985,0-5.356-1.064-7.053-3.164c-1.673-2.07-2.523-4.958-2.523-8.586c0-3.615,0.853-6.509,2.537-8.599
						c1.705-2.112,4.074-3.187,7.038-3.187c2.976,0,5.351,1.071,7.04,3.161c1.682,2.07,2.534,4.974,2.534,8.625
						C255.061,111.308,254.214,114.206,252.546,116.26z"/>
				</g>
				<g>
					<path fill="#E6E6E6" d="M176.91,108.274c-0.913-0.902-2.054-1.684-3.43-2.349c-1.371-0.678-2.99-1.35-4.841-2.035
						c-0.897-0.318-1.715-0.62-2.452-0.902c-0.745-0.292-1.395-0.626-1.96-0.983c-0.566-0.363-1.009-0.772-1.314-1.214
						c-0.307-0.441-0.467-0.993-0.467-1.652c0-1.1,0.422-1.918,1.266-2.443c0.842-0.532,2.507-1.158,5-0.701
						c1.639,0.308,2.997,0.973,4.46,2.81l5.563-4.429c-2.184-2.888-5.692-5.335-11.389-5.335c-2.031,0-3.847,0.247-5.465,0.746
						c-1.613,0.493-2.99,1.207-4.121,2.135c-1.137,0.935-2.013,2.054-2.632,3.381c-0.615,1.324-0.926,2.807-0.926,4.458
						c0,1.648,0.29,3.05,0.876,4.202c0.582,1.152,1.34,2.132,2.263,2.937c0.931,0.808,1.981,1.48,3.147,2.012
						c1.167,0.529,2.34,1.003,3.506,1.415c2.682,0.889,4.574,1.723,5.672,2.508c1.097,0.769,1.647,1.742,1.647,2.904
						c0,0.555-0.188,1.577-1.012,2.356c-0.79,0.737-2.302,1.434-4.765,1.356c-2.344-0.062-4.567-1.045-6.268-2.8l-5.768,4.608
						c2.315,2.726,6.029,5.046,12.035,5.046c4.713,0,8.236-0.915,10.573-2.758c2.333-1.83,3.501-4.416,3.501-7.759
						c0-1.71-0.217-3.173-0.664-4.377C178.497,110.208,177.82,109.16,176.91,108.274z"/>
				</g>
			</g>
			<g>
				<path fill="#E6E6E6" d="M215.32,98.474v20.93c-0.48,0.065-1.03,0.13-1.647,0.182c-0.618,0.042-1.207,0.081-1.755,0.081
					c-1.783,0-2.846-0.581-3.659-1.652c-0.8-1.068-0.983-2.894-0.983-5.367v-8.927v-5.247v-0.006h-12.262l-2.208,5.253h6.795h4.493
					l-4.493,3.586v6.266c0,1.859,0.19,3.563,0.57,5.107c0.373,1.548,1.009,2.882,1.906,3.994c0.891,1.126,2.099,1.992,3.626,2.609
					c1.535,0.617,3.453,0.928,5.755,0.928c2.267,0,4.431-0.169,6.495-0.49c2.061-0.331,3.745-0.681,5.051-1.055V98.474H215.32z"/>
			</g>
			<g>
				<path fill="#E6E6E6" d="M192.273,119.641c-0.656-0.892-0.923-2.463-0.923-4.475v-11.445v-5.253v-7.424l-15.879,12.678h8.198
					v12.201c0,1.512,0.188,2.901,0.568,4.163c0.378,1.256,1.011,2.34,1.906,3.248c0.894,0.908,2.103,1.613,3.631,2.116
					c1.528,0.516,3.449,0.763,5.748,0.763c0.542,0,1.048-0.052,1.574-0.068v-5.309c-0.378,0.019-0.764,0.036-1.108,0.036
					C194.201,120.871,192.921,120.54,192.273,119.641z"/>
			</g>
		</g>
	</g>
	<g>
		<path fill="#E6E6E6" d="M127.81,322.76v-4.297h19.078v-1.203l7.047-4.297h-18.906v-4.125h25.781v4.125l-8.938,5.5h16.672v4.297
			H151.7v4.984c0.113,3.666-1.834,5.5-5.844,5.5c-2.521,0-4.756,0-6.703,0c-0.344-1.605-0.688-3.094-1.031-4.469
			c0.572,0,1.488,0,2.75,0c1.26,0.113,2.234,0.172,2.922,0.172c2.291,0.229,3.322-0.688,3.094-2.75v-3.438H127.81z M128.841,310.385
			v-9.453h25.781l-0.688-0.344c2.291-3.094,4.125-5.729,5.5-7.906l4.984,1.547c-0.459,0.574-1.09,1.434-1.891,2.578
			c-1.375,1.834-2.406,3.209-3.094,4.125h7.906v9.453h-4.469v-5.328H133.31v5.328H128.841z M135.716,300.589
			c-0.459-0.688-1.146-1.775-2.062-3.266c-1.031-1.375-1.778-2.406-2.234-3.094l4.641-1.375c1.604,2.062,3.094,4.068,4.469,6.016
			L135.716,300.589z M146.888,299.729c-0.231-0.344-0.575-0.973-1.031-1.891c-0.575-0.801-1.49-2.348-2.75-4.641l4.641-0.859
			c1.375,2.062,2.75,4.184,4.125,6.359L146.888,299.729z"/>
		<path fill="#E6E6E6" d="M174.388,327.057l-1.891-5.156c9.625-2.979,19.135-6.244,28.531-9.797c0,0.459,0.057,1.318,0.172,2.578
			c0.113,1.375,0.172,2.293,0.172,2.75C190.716,321.1,181.719,324.307,174.388,327.057z M191.404,332.557
			c-0.344-1.605-0.688-3.209-1.031-4.812c1.832,0.115,4.41,0.172,7.734,0.172c4.125,0.344,6.072-1.66,5.844-6.016
			c0.229-2.979,0.4-8.535,0.516-16.672c0.113-2.406,0.172-4.125,0.172-5.156H173.7v-4.641h36.094
			c-0.231,10.656-0.516,20.053-0.859,28.188c0.113,5.957-2.922,8.938-9.109,8.938C196.96,332.557,194.154,332.557,191.404,332.557z
			 M190.544,313.479c-1.031-0.688-2.521-1.66-4.469-2.922c-3.438-2.176-5.959-3.723-7.562-4.641l2.922-3.438
			c4.354,2.406,8.479,4.812,12.375,7.219L190.544,313.479z"/>
		<path fill="#E6E6E6" d="M221.825,333.245l-3.094-3.781c1.031-0.916,1.547-2.234,1.547-3.953v-14.781h-4.812v-4.297h9.453v18.219
			c1.719-1.145,3.838-2.635,6.359-4.469c0.457,2.178,0.916,3.84,1.375,4.984c-3.209,2.178-6.075,4.125-8.594,5.844
			c-0.459,0.344-0.975,0.859-1.547,1.547C222.169,332.901,221.938,333.13,221.825,333.245z M225.091,302.823
			c-2.178-2.52-4.412-4.984-6.703-7.391l3.781-2.75c0.8,0.803,1.947,1.949,3.438,3.438c1.604,1.605,2.75,2.809,3.438,3.609
			L225.091,302.823z M229.216,310.901v-4.641h11.344v-13.75h4.984v13.75h11.344v4.641h-11.344v22.516h-4.984v-22.516H229.216z"/>
		<path fill="#E6E6E6" d="M260.154,309.182l-0.516-4.125l6.016-0.859c-0.115-3.666-0.287-7.562-0.516-11.688h4.641
			c0,3.781,0.113,7.506,0.344,11.172l12.547-1.719l0.344,3.953l-12.719,1.891c0.229,3.553,0.572,6.762,1.031,9.625
			c2.406-2.176,4.753-4.926,7.047-8.25l3.781,2.234c-3.209,4.355-6.418,7.906-9.625,10.656c0.688,1.719,1.547,3.381,2.578,4.984
			c0.688,1.031,1.488,1.547,2.406,1.547c0.8,0,1.375-0.629,1.719-1.891c0.572-1.604,1.031-3.494,1.375-5.672
			c1.031,0.574,2.347,1.146,3.953,1.719c-0.688,3.094-1.318,5.215-1.891,6.359c-0.918,2.75-2.578,4.125-4.984,4.125
			c-2.637,0.113-4.7-1.262-6.188-4.125c-1.031-1.145-1.891-2.52-2.578-4.125c-2.062,1.605-4.584,3.037-7.562,4.297
			c-0.231-0.344-0.575-0.801-1.031-1.375c-0.575-1.031-1.031-1.832-1.375-2.406c3.438-1.719,6.3-3.379,8.594-4.984
			c-0.688-2.635-1.203-6.703-1.547-12.203L260.154,309.182z M277.685,301.276c-0.803-0.688-2.178-1.832-4.125-3.438
			c-0.803-0.572-1.375-1.031-1.719-1.375l2.578-2.75c2.291,1.49,4.297,2.922,6.016,4.297L277.685,301.276z M285.247,322.417v-25.266
			h4.297v25.266H285.247z M286.966,333.073c-0.115-0.344-0.231-0.859-0.344-1.547c-0.231-1.375-0.459-2.35-0.688-2.922
			c1.947,0,3.722,0,5.328,0c2.175,0,3.207-0.916,3.094-2.75v-33.172h4.469v34.547c0.229,3.666-1.662,5.557-5.672,5.672
			C291.32,332.901,289.257,332.958,286.966,333.073z"/>
	</g>
</g>
</svg>
