<?xml version="1.0" encoding="utf-8"?>
<!-- Generator: Adobe Illustrator 17.0.0, SVG Export Plug-In . SVG Version: 6.00 Build 0)  -->
<!DOCTYPE svg PUBLIC "-//W3C//DTD SVG 1.1//EN" "http://www.w3.org/Graphics/SVG/1.1/DTD/svg11.dtd">
<svg version="1.1" id="图层_1" xmlns="http://www.w3.org/2000/svg" xmlns:xlink="http://www.w3.org/1999/xlink" viewBox="-263 220 178 178" xml:space="preserve">
  <g>
   <path fill="#fff" d="M-129.197,308.392c-6.992-1.355-3.596-5.113-3.596-5.113s6.844-11.285-1.35-19.478
     c-10.158-10.159-34.84,1.288-34.84,1.288c-9.424,2.933-6.925-1.331-5.59-8.58c0-8.542-2.928-22.998-28.039-14.456
     c-25.082,8.585-46.621,38.656-46.621,38.656c-14.976,19.994-12.996,35.437-12.996,35.437
     c3.744,34.101,39.977,43.463,68.159,45.686c29.656,2.318,69.672-10.226,81.805-35.999
     C-100.132,320.01-122.181,309.794-129.197,308.392z M-191.876,372.211c-29.432,1.379-53.227-13.383-53.227-33.023
     c0-19.669,23.795-35.441,53.227-36.796c29.46-1.359,53.298,10.779,53.298,30.4C-138.579,352.432-162.416,370.871-191.876,372.211z
     "/>
   <path fill="#fff" d="M-197.748,315.341c-29.604,3.468-26.184,31.197-26.184,31.197s-0.3,8.785,7.941,13.254
     c17.322,9.381,35.155,3.701,44.169-7.936C-162.802,340.218-168.096,311.902-197.748,315.341z M-205.212,354.264
     c-5.528,0.649-9.983-2.537-9.983-7.164c0-4.602,3.959-9.424,9.486-10.001c6.348-0.606,10.483,3.052,10.483,7.674
     C-195.225,349.38-199.708,353.634-205.212,354.264z M-187.761,339.403c-1.874,1.397-4.178,1.197-5.165-0.477
     c-1.035-1.64-0.649-4.264,1.25-5.642c2.194-1.626,4.474-1.159,5.461,0.477C-185.223,335.434-185.934,337.952-187.761,339.403z"/>
 </g>
 <path fill="#fff" d="M-86.349,292.853c0.138-0.548,0.229-1.111,0.233-1.703c0.396-2.619,0.644-5.275,0.644-7.931
   c0-29.218-23.766-52.988-52.984-52.988c-4.049,0-7.326,3.281-7.326,7.326c0,4.045,3.277,7.326,7.326,7.326
   c21.138,0,38.332,17.199,38.332,38.337c0,2.356-0.215,4.717-0.639,7.011l0.086,0.014c-0.029,0.277-0.081,0.548-0.081,0.835
   c0,4.045,3.277,7.326,7.326,7.326c3.415,0,6.257-2.346,7.068-5.504h0.009C-86.354,292.886-86.354,292.867-86.349,292.853z"/>
 <path fill="#fff" d="M-109.285,285.971c0.086-0.911,0.176-1.817,0.176-2.752c0-16.183-13.163-29.346-29.346-29.346
   c-3.372,0-6.105,2.733-6.105,6.105c0,3.372,2.733,6.105,6.105,6.105c9.448,0,17.137,7.688,17.137,17.137
   c0,0.749-0.047,1.483-0.138,2.203l0.143,0.019c-0.029,0.243-0.143,0.458-0.143,0.711c0,3.372,2.733,6.105,6.105,6.105
   c3.086,0,5.528-2.327,5.943-5.298l0.062,0.009c0.019-0.152,0.009-0.315,0.029-0.467c0.004-0.119,0.071-0.224,0.071-0.348
   C-109.247,286.085-109.285,286.033-109.285,285.971z"/>
</svg>
