<?xml version="1.0" encoding="utf-8"?>
<!-- Generator: Adobe Illustrator 17.0.0, SVG Export Plug-In . SVG Version: 6.00 Build 0)  -->
<!DOCTYPE svg PUBLIC "-//W3C//DTD SVG 1.1//EN" "http://www.w3.org/Graphics/SVG/1.1/DTD/svg11.dtd">
<svg version="1.1" id="图层_1" xmlns="http://www.w3.org/2000/svg" xmlns:xlink="http://www.w3.org/1999/xlink" x="0px" y="0px"
	 width="424.037px" height="426.157px" viewBox="0 0 424.037 426.157" enable-background="new 0 0 424.037 426.157"
	 xml:space="preserve">
<g>
	<g>
		<path fill="#E6E6E6" d="M213.501,415.218c-111.107,0-201.5-90.393-201.5-201.5s90.393-201.5,201.5-201.5s201.5,90.393,201.5,201.5
			S324.609,415.218,213.501,415.218z M213.501,15.218c-109.453,0-198.5,89.047-198.5,198.5s89.047,198.5,198.5,198.5
			s198.5-89.047,198.5-198.5S322.954,15.218,213.501,15.218z"/>
	</g>
	<g>
		<path fill="#E6E6E6" d="M40.967,209.624v-12.296h45.995c0.299-6.675,0.456-16.238,0.456-28.69h13.662l-0.911,28.69h45.995v12.296
			h-45.54c3.942,26.114,19.881,44.174,47.817,54.192c-3.039,3.031-5.92,6.831-8.653,11.385
			c-25.204-10.93-40.531-27.018-45.996-48.272c-4.86,20.649-20.194,37.187-45.995,49.639c-0.911-1.217-2.583-3.493-5.009-6.831
			c-1.822-2.127-3.039-3.643-3.644-4.554c29.146-12.14,44.629-30.661,46.451-55.559H40.967z"/>
		<path fill="#E6E6E6" d="M157.093,201.882v-9.563h24.592v-23.681h10.474v23.681h21.859v9.563h-21.859v9.563l4.554-5.465
			c4.554,2.732,8.951,5.315,13.207,7.742c7.891-13.051,13.961-28.385,18.216-45.996l11.385,1.366
			c-1.822,5.771-3.644,11.691-5.465,17.761h30.512v10.93h-7.742c-1.822,22.165-6.077,38.709-12.751,49.639
			c5.465,6.682,12.595,12.602,21.404,17.761c-0.306,0.604-0.911,1.516-1.821,2.732c-2.128,3.337-3.8,6.219-5.01,8.652
			c-9.108-6.682-16.095-13.05-20.948-19.127c-4.86,5.465-12.296,12.14-22.314,20.038c-2.434-3.644-4.86-6.682-7.287-9.108
			l-1.822,3.188c-6.681-3.345-11.691-5.771-15.028-7.287c-7.592,4.854-18.067,9.108-31.423,12.752
			c-1.522-2.732-3.188-6.077-5.009-10.02c1.209-0.306,2.732-0.761,4.554-1.366c10.624-2.12,17.604-4.099,20.948-5.92
			c-0.911-0.604-2.434-1.366-4.554-2.277c-2.732-1.516-7.592-3.643-14.573-6.375c2.427-3.338,4.704-6.831,6.831-10.475h-11.84
			v-9.563h17.761c1.516-2.732,2.882-5.158,4.099-7.286l10.929,0.911l-3.643,6.375h25.502v10.02
			c-2.434,6.375-5.92,11.996-10.474,16.85c3.643,1.522,7.585,3.188,11.84,5.009l-2.732,3.644
			c9.108-6.069,16.238-12.445,21.404-19.127c-4.255-7.286-7.592-17.761-10.019-31.423c-0.911,1.217-1.979,2.89-3.188,5.01
			c-0.612,1.217-1.067,2.128-1.366,2.732c-0.306-0.299-0.911-1.061-1.822-2.277c-0.911-1.516-1.672-2.575-2.277-3.188l-4.554,6.376
			c-3.949-3.338-9.108-6.98-15.483-10.93v8.197h-10.474v-11.386c-4.86,5.465-11.84,10.631-20.948,15.484
			c-0.911-1.822-2.434-4.397-4.554-7.742c-0.306-0.604-0.612-1.061-0.911-1.366c9.407-3.644,17.148-8.652,23.225-15.028H157.093z
			 M170.3,190.952c-4.86-5.764-8.809-10.168-11.84-13.206l7.287-5.465c1.516,1.522,3.942,3.949,7.286,7.286
			c2.732,2.434,4.554,4.099,5.465,5.01L170.3,190.952z M174.854,246.966c1.822,0.611,4.397,1.672,7.742,3.188
			c3.643,1.217,6.219,2.277,7.742,3.188c3.942-3.031,6.98-7.286,9.108-12.751h-20.038L174.854,246.966z M202.178,191.408
			l-7.287-6.376c2.732-2.427,6.98-6.831,12.751-13.207l7.742,5.921C212.951,180.478,208.554,185.032,202.178,191.408z
			 M228.592,200.515c1.821,15.483,4.853,27.63,9.108,36.433c4.554-8.496,7.436-21.554,8.652-39.165h-16.85
			C228.89,198.694,228.592,199.605,228.592,200.515z"/>
		<path fill="#E6E6E6" d="M273.221,200.515v-11.385h11.385v-20.493h10.93v20.493h10.019v11.385h-10.019v20.038l9.108-2.277
			c0,3.949,0.149,7.742,0.456,11.385l-9.563,2.732v30.057c0.299,8.197-3.494,12.445-11.385,12.751
			c-4.255,0.299-7.742,0.456-10.474,0.456c-0.306-3.949-0.911-7.898-1.821-11.841c0.299,0,0.911,0,1.821,0
			c2.427,0.299,4.248,0.455,5.465,0.455c3.942,0.299,5.764-1.209,5.465-4.554v-24.592c-1.217,0.307-3.039,0.911-5.465,1.822
			c-3.038,0.611-5.166,1.217-6.375,1.821l-1.366-12.751c1.516-0.299,3.792-0.755,6.831-1.366c2.732-0.605,4.853-1.061,6.375-1.366
			v-22.771H273.221z M306.009,276.567c-2.434-2.434-5.465-5.166-9.108-8.197c9.108-11.534,13.356-30.354,12.751-56.47v-38.253h68.31
			v31.422h-56.925v11.386h22.77v-11.386h11.385v11.386h26.414v10.019h-26.414v11.385h20.949v38.709h-10.93v-5.92h-31.423v5.92
			h-10.93v-38.709h20.949v-11.385h-23.226C320.277,246.212,315.416,262.905,306.009,276.567z M321.038,183.211v12.296h45.54v-12.296
			H321.038z M333.789,247.422v14.573h31.423v-14.573H333.789z"/>
	</g>
	<g>
		<g>
			<g>
				<g>
					<g>
						<path fill="#E6E6E6" d="M273.361,115.289h-1.105c0.826,0.568,1.245,1.259,1.245,2.07c0,0.509-0.169,0.918-0.49,1.22
							c-0.321,0.312-0.761,0.461-1.309,0.461h-4.235v-1.068h3.891c0.443,0,0.754-0.068,0.938-0.191
							c0.19-0.13,0.276-0.347,0.276-0.646c0-0.659-0.427-1.275-1.285-1.846h-3.819v-1.068h5.894V115.289z"/>
					</g>
					<g>
						<path fill="#E6E6E6" d="M273.172,108.323c0.221,0.711,0.33,1.314,0.33,1.83c0,0.873-0.29,1.574-0.87,2.129
							c-0.579,0.542-1.324,0.818-2.239,0.818c-0.897,0-1.631-0.24-2.2-0.727c-0.573-0.474-0.86-1.1-0.86-1.846
							c0-0.72,0.255-1.272,0.761-1.658c0.503-0.389,1.227-0.581,2.16-0.581l0.329,0.006v3.716c1.405-0.156,2.106-0.84,2.106-2.057
							c0-0.441-0.12-0.987-0.362-1.629H273.172z M269.781,111.967v-2.602c-1.095,0-1.648,0.406-1.648,1.217
							C268.132,111.412,268.685,111.866,269.781,111.967z"/>
					</g>
					<g>
						<path fill="#E6E6E6" d="M273.361,103.316h-1.105c0.826,0.565,1.245,1.259,1.245,2.061c0,0.519-0.169,0.922-0.49,1.233
							c-0.321,0.295-0.761,0.448-1.309,0.448h-4.235v-1.061h3.891c0.443,0,0.754-0.068,0.938-0.195
							c0.19-0.13,0.276-0.344,0.276-0.646c0-0.649-0.427-1.266-1.285-1.84h-3.819v-1.077h5.894V103.316z"/>
					</g>
					<g>
						<path fill="#E6E6E6" d="M273.172,96.339c0.221,0.711,0.33,1.327,0.33,1.837c0,0.87-0.29,1.574-0.87,2.116
							c-0.579,0.552-1.324,0.828-2.239,0.828c-0.897,0-1.631-0.237-2.2-0.724c-0.573-0.477-0.86-1.097-0.86-1.85
							c0-0.711,0.255-1.265,0.761-1.655c0.503-0.386,1.227-0.584,2.16-0.584l0.329,0.01v3.715c1.405-0.152,2.106-0.844,2.106-2.057
							c0-0.445-0.12-0.993-0.362-1.635H273.172z M269.781,99.983v-2.602c-1.095,0-1.648,0.412-1.648,1.223
							C268.132,99.431,268.685,99.892,269.781,99.983z"/>
					</g>
				</g>
				<g>
					<path fill="#E6E6E6" d="M263.747,122.013c-1.269-0.552-2.463-1.311-3.532-2.255l-0.269-0.237l0.211-0.282
						c1.144-1.528,1.992-3.268,2.536-5.153c0.547-1.895,0.826-4.066,0.826-6.431c0-5.62-1.66-10.17-4.931-13.538
						c-3.266-3.375-7.676-5.075-13.101-5.075c-2.414,0-4.657,0.344-6.662,1.032c-1.997,0.685-3.81,1.72-5.395,3.086
						c-1.97,1.704-3.482,3.8-4.478,6.211c-0.993,2.424-1.501,5.211-1.501,8.284c0,5.62,1.653,10.17,4.918,13.525
						c3.261,3.349,7.672,5.049,13.119,5.049c1.783,0,3.49-0.191,5.08-0.568c1.585-0.376,3.055-0.925,4.371-1.639l0.26-0.153
						l0.206,0.23c1.218,1.337,2.664,2.417,4.298,3.206c1.564,0.753,3.315,1.243,5.219,1.447l2.411-5.73
						C266.072,122.843,264.868,122.509,263.747,122.013z M252.545,116.26c-1.691,2.083-4.061,3.144-7.059,3.144
						c-2.985,0-5.356-1.064-7.053-3.164c-1.673-2.07-2.523-4.958-2.523-8.586c0-3.615,0.853-6.509,2.537-8.599
						c1.705-2.112,4.074-3.187,7.038-3.187c2.976,0,5.351,1.071,7.04,3.161c1.682,2.07,2.534,4.974,2.534,8.625
						C255.06,111.308,254.213,114.206,252.545,116.26z"/>
				</g>
				<g>
					<path fill="#E6E6E6" d="M176.91,108.274c-0.913-0.902-2.054-1.684-3.43-2.349c-1.371-0.678-2.99-1.35-4.841-2.035
						c-0.897-0.318-1.715-0.62-2.452-0.902c-0.745-0.292-1.395-0.626-1.96-0.983c-0.566-0.363-1.009-0.772-1.314-1.214
						c-0.307-0.441-0.467-0.993-0.467-1.652c0-1.1,0.422-1.918,1.266-2.443c0.842-0.532,2.507-1.158,5-0.701
						c1.639,0.308,2.997,0.973,4.46,2.81l5.563-4.429c-2.184-2.888-5.692-5.335-11.389-5.335c-2.031,0-3.847,0.247-5.465,0.746
						c-1.613,0.493-2.99,1.207-4.121,2.135c-1.137,0.935-2.013,2.054-2.632,3.381c-0.615,1.324-0.926,2.807-0.926,4.458
						c0,1.648,0.29,3.05,0.876,4.202c0.582,1.152,1.34,2.132,2.263,2.937c0.931,0.808,1.981,1.48,3.147,2.012
						c1.167,0.529,2.34,1.003,3.506,1.415c2.682,0.889,4.574,1.723,5.672,2.508c1.097,0.769,1.647,1.742,1.647,2.904
						c0,0.555-0.188,1.577-1.012,2.356c-0.79,0.737-2.302,1.434-4.765,1.356c-2.344-0.062-4.567-1.045-6.268-2.8l-5.768,4.608
						c2.315,2.726,6.029,5.046,12.035,5.046c4.713,0,8.236-0.915,10.573-2.758c2.333-1.83,3.501-4.416,3.501-7.759
						c0-1.71-0.217-3.173-0.664-4.377C178.497,110.208,177.82,109.16,176.91,108.274z"/>
				</g>
			</g>
			<g>
				<path fill="#E6E6E6" d="M215.32,98.474v20.93c-0.48,0.065-1.03,0.13-1.647,0.182c-0.618,0.042-1.207,0.081-1.755,0.081
					c-1.783,0-2.846-0.581-3.659-1.652c-0.8-1.068-0.983-2.894-0.983-5.367v-8.927v-5.247v-0.006h-12.262l-2.208,5.253h6.795h4.493
					l-4.493,3.586v6.266c0,1.859,0.19,3.563,0.569,5.107c0.373,1.548,1.009,2.882,1.906,3.994c0.891,1.126,2.099,1.992,3.626,2.609
					c1.535,0.617,3.453,0.928,5.755,0.928c2.267,0,4.431-0.169,6.495-0.49c2.061-0.331,3.745-0.681,5.051-1.055V98.474H215.32z"/>
			</g>
			<g>
				<path fill="#E6E6E6" d="M192.273,119.641c-0.656-0.892-0.923-2.463-0.923-4.475v-11.445v-5.253v-7.424l-15.879,12.678h8.198
					v12.201c0,1.512,0.188,2.901,0.568,4.163c0.378,1.256,1.011,2.34,1.906,3.248c0.894,0.908,2.103,1.613,3.631,2.116
					c1.528,0.516,3.449,0.763,5.748,0.763c0.542,0,1.048-0.052,1.574-0.068v-5.309c-0.378,0.019-0.764,0.036-1.108,0.036
					C194.2,120.871,192.92,120.54,192.273,119.641z"/>
			</g>
		</g>
	</g>
	<g>
		<path fill="#E6E6E6" d="M124.094,322.759v-4.297h19.078v-1.203l7.047-4.297h-18.906v-4.125h25.781v4.125l-8.938,5.5h16.672v4.297
			h-16.844v4.984c0.113,3.666-1.834,5.5-5.844,5.5c-2.521,0-4.756,0-6.703,0c-0.344-1.605-0.688-3.094-1.031-4.469
			c0.572,0,1.488,0,2.75,0c1.26,0.113,2.234,0.172,2.922,0.172c2.291,0.229,3.322-0.688,3.094-2.75v-3.438H124.094z
			 M125.125,310.384v-9.453h25.781l-0.688-0.344c2.291-3.094,4.125-5.729,5.5-7.906l4.984,1.547
			c-0.459,0.574-1.09,1.434-1.891,2.578c-1.375,1.834-2.406,3.209-3.094,4.125h7.906v9.453h-4.469v-5.328h-29.562v5.328H125.125z
			 M132,300.588c-0.459-0.688-1.146-1.775-2.062-3.266c-1.031-1.375-1.778-2.406-2.234-3.094l4.641-1.375
			c1.604,2.062,3.094,4.068,4.469,6.016L132,300.588z M143.172,299.728c-0.231-0.344-0.575-0.973-1.031-1.891
			c-0.575-0.801-1.49-2.348-2.75-4.641l4.641-0.859c1.375,2.062,2.75,4.184,4.125,6.359L143.172,299.728z"/>
		<path fill="#E6E6E6" d="M170.672,327.056l-1.891-5.156c9.625-2.979,19.135-6.244,28.531-9.797c0,0.459,0.057,1.318,0.172,2.578
			c0.113,1.375,0.172,2.293,0.172,2.75C187,321.099,178.004,324.306,170.672,327.056z M187.688,332.556
			c-0.344-1.605-0.688-3.209-1.031-4.812c1.832,0.115,4.41,0.172,7.734,0.172c4.125,0.344,6.072-1.66,5.844-6.016
			c0.229-2.979,0.4-8.535,0.516-16.672c0.113-2.406,0.172-4.125,0.172-5.156h-30.938v-4.641h36.094
			c-0.231,10.656-0.516,20.053-0.859,28.188c0.113,5.957-2.922,8.938-9.109,8.938C193.244,332.556,190.438,332.556,187.688,332.556z
			 M186.828,313.478c-1.031-0.688-2.521-1.66-4.469-2.922c-3.438-2.176-5.959-3.723-7.562-4.641l2.922-3.438
			c4.354,2.406,8.479,4.812,12.375,7.219L186.828,313.478z"/>
		<path fill="#E6E6E6" d="M218.11,333.244l-3.094-3.781c1.031-0.916,1.547-2.234,1.547-3.953v-14.781h-4.812v-4.297h9.453v18.219
			c1.719-1.145,3.838-2.635,6.359-4.469c0.457,2.178,0.916,3.84,1.375,4.984c-3.209,2.178-6.075,4.125-8.594,5.844
			c-0.459,0.344-0.975,0.859-1.547,1.547C218.453,332.9,218.222,333.129,218.11,333.244z M221.375,302.822
			c-2.178-2.52-4.412-4.984-6.703-7.391l3.781-2.75c0.8,0.803,1.947,1.949,3.438,3.438c1.604,1.605,2.75,2.809,3.438,3.609
			L221.375,302.822z M225.5,310.9v-4.641h11.344v-13.75h4.984v13.75h11.344v4.641h-11.344v22.516h-4.984V310.9H225.5z"/>
		<path fill="#E6E6E6" d="M256.438,309.181l-0.516-4.125l6.016-0.859c-0.115-3.666-0.287-7.562-0.516-11.688h4.641
			c0,3.781,0.113,7.506,0.344,11.172l12.547-1.719l0.344,3.953l-12.719,1.891c0.229,3.553,0.572,6.762,1.031,9.625
			c2.406-2.176,4.753-4.926,7.047-8.25l3.781,2.234c-3.209,4.355-6.418,7.906-9.625,10.656c0.688,1.719,1.547,3.381,2.578,4.984
			c0.688,1.031,1.488,1.547,2.406,1.547c0.8,0,1.375-0.629,1.719-1.891c0.572-1.604,1.031-3.494,1.375-5.672
			c1.031,0.574,2.347,1.146,3.953,1.719c-0.688,3.094-1.318,5.215-1.891,6.359c-0.918,2.75-2.578,4.125-4.984,4.125
			c-2.637,0.113-4.7-1.262-6.188-4.125c-1.031-1.145-1.891-2.52-2.578-4.125c-2.062,1.605-4.584,3.037-7.562,4.297
			c-0.231-0.344-0.575-0.801-1.031-1.375c-0.575-1.031-1.031-1.832-1.375-2.406c3.438-1.719,6.3-3.379,8.594-4.984
			c-0.688-2.635-1.203-6.703-1.547-12.203L256.438,309.181z M273.969,301.275c-0.803-0.688-2.178-1.832-4.125-3.438
			c-0.803-0.572-1.375-1.031-1.719-1.375l2.578-2.75c2.291,1.49,4.297,2.922,6.016,4.297L273.969,301.275z M281.531,322.416V297.15
			h4.297v25.266H281.531z M283.25,333.072c-0.115-0.344-0.231-0.859-0.344-1.547c-0.231-1.375-0.459-2.35-0.688-2.922
			c1.947,0,3.722,0,5.328,0c2.175,0,3.207-0.916,3.094-2.75v-33.172h4.469v34.547c0.229,3.666-1.662,5.557-5.672,5.672
			C287.604,332.9,285.541,332.957,283.25,333.072z"/>
	</g>
</g>
</svg>
