<?xml version="1.0" encoding="utf-8"?>
<!-- Generator: Adobe Illustrator 17.0.0, SVG Export Plug-In . SVG Version: 6.00 Build 0)  -->
<!DOCTYPE svg PUBLIC "-//W3C//DTD SVG 1.1//EN" "http://www.w3.org/Graphics/SVG/1.1/DTD/svg11.dtd">
<svg version="1.1" xmlns="http://www.w3.org/2000/svg" xmlns:xlink="http://www.w3.org/1999/xlink" x="0px" y="0px" width="66px"
	 height="66.667px" viewBox="0 0 66 66.667" enable-background="new 0 0 66 66.667" xml:space="preserve">
<g id="Layer_1">
	<g>
		<path fill="#F7F8F8" d="M49.54,27.736h-3.454l-1.418,8.613h3.228c0,0,3.927,0.122,4.112-5.58
			C52.192,27.493,49.54,27.736,49.54,27.736z"/>
		<path fill="#F7F8F8" d="M20.06,27.736h-3.454l-1.418,8.613h3.228c0,0,3.927,0.122,4.112-5.58
			C22.712,27.493,20.06,27.736,20.06,27.736z"/>
		<path fill="#F7F8F8" d="M33,1.006c-17.673,0-32,14.327-32,32c0,17.673,14.327,32,32,32s32-14.327,32-32
			C65,15.333,50.673,1.006,33,1.006z M18.251,39.552l-3.495-0.032l-0.987,5.418h-3.741l3.371-20.381c0,0,4.79,0.073,7.935,0
			c3.145-0.073,6.239,2.55,4.79,8.492C24.398,40.134,18.251,39.552,18.251,39.552z M35.067,39.552L35.067,39.552
			c0,0,0.898-4.736,1.292-8.025c0.162-1.354,0.867-3.646-1.002-3.651c-1.566-0.005-3.907-0.019-3.907-0.019l-1.974,11.695h-3.701
			l3.454-20.478h3.789l-0.952,5.482h3.906c0,0,5.181-0.484,4.564,4.563c-0.617,5.047-1.768,10.433-1.768,10.433H35.067z
			 M55.605,33.049c-1.727,7.085-7.874,6.503-7.874,6.503l-3.495-0.032l-0.987,5.418h-3.741l3.372-20.38c0,0,4.79,0.073,7.935,0
			C53.96,24.484,57.053,27.107,55.605,33.049z"/>
	</g>
</g>
<g id="Layer_2">
</g>
</svg>
