<?xml version="1.0" encoding="utf-8"?>
<!-- Generator: Adobe Illustrator 17.0.0, SVG Export Plug-In . SVG Version: 6.00 Build 0)  -->
<!DOCTYPE svg PUBLIC "-//W3C//DTD SVG 1.1//EN" "http://www.w3.org/Graphics/SVG/1.1/DTD/svg11.dtd">
<svg version="1.1" id="图层_1" xmlns="http://www.w3.org/2000/svg" xmlns:xlink="http://www.w3.org/1999/xlink" x="0px" y="0px"
	 width="500px" height="200px" viewBox="31 50 500 200" enable-background="new 0 0 500 300" xml:space="preserve">
<g>
	<g>
		<path fill="#b5b5b6" d="M220.784,211.647v-3.113h17.39v-3.2h4.691v3.2h18.422v3.113h-18.422v4.753h13.431v7.538
			c0.114,3.605-1.797,5.354-5.733,5.244h-2.783v8.375c-0.117,1.749,0.809,2.566,2.78,2.459h10.785v2.949h-12.35
			c-3.822,0.107-5.676-1.531-5.559-4.916v-8.868h-7.257c-0.688,8.258-4.491,12.235-15.377,13.766v-2.458
			c6.58-1.367,10.252-4.12,10.686-11.308h-6.94V216.4h13.627v-4.753H220.784z M229.064,226.396h20.108
			c1.737,0.111,2.606-0.763,2.606-2.622v-4.588h-22.714V226.396z"/>
		<path fill="#b5b5b6" d="M99.653,240.868v2.157c5.212-1.203,7.178-4.25,7.866-8.193h-4.17
			C103.274,236.449,102.853,239.642,99.653,240.868z M116.521,234.832h-4.17c0.688,3.944,2.655,6.99,7.866,8.193v-2.157
			C117.017,239.642,116.596,236.449,116.521,234.832z M127.276,217.461v-7.047h5.038c2.315,0,4.691-0.328,7.123-0.983v-3.277
			c-2.78,0.983-5.502,1.475-8.165,1.475h-7.991v23.271c0.114,4.482-0.581,7.485-2.085,9.014v3.113
			c4.517-2.515,6.097-6.306,6.081-12.946v-9.669h4.864v22.613h3.996V220.41h3.996v-2.949H127.276z M118.241,205.334h-4.169v3.277
			h-7.123v-3.277h-4.17v3.277H100v2.786h2.78v19.01h-3.127v2.786h21.368v-2.786h-2.78v-19.01h2.78v-2.786h-2.78V205.334z
			 M114.072,230.407h-7.123v-4.589h5.618v-2.786h-5.618v-4.425h5.618v-2.785h-5.618v-4.425h7.123V230.407z"/>
		<path fill="#b5b5b6" d="M185.571,223.67c2.663,5.244,7.354,9.341,14.072,12.29v-2.949c-7.644-4.806-11.527-10.87-11.64-18.191
			h12.747v-2.95h-12.747v-6.537h-4.864v6.537h-11.814v2.95h11.814c0,7.759-3.94,13.822-11.814,18.191v2.949
			C178.158,233.231,182.905,229.134,185.571,223.67z M175.669,238.911c-4.056,0-6.14-1.857-6.255-5.572v-16.876h-9.207v2.786h4.517
			v15.237c0.114,2.622-1.583,4.762-4.477,5.965v2.459c3.241-0.766,5.866-2.306,7.256-4.163c1.389,2.074,4.053,3.114,7.991,3.114
			h25.255v-2.95H175.669z M169.512,213.595l-1.807-8.146h-4.704l1.807,8.146H169.512z"/>
		<path fill="#b5b5b6" d="M304.324,210.587c-0.468-1.866-1.169-3.618-2.102-5.254h-4.027c0.816,1.752,1.458,3.502,1.926,5.254
			H304.324z M292.415,210.587c-0.701-2.102-1.401-3.853-2.102-5.254h-4.202c0.933,1.752,1.576,3.502,1.926,5.254H292.415z
			 M313.605,211.638c1.284-1.516,2.452-3.618,3.503-6.304h-4.554c-0.585,2.219-1.576,4.321-2.977,6.304h-28.16v9.296h4.378v-6.319
			h31.708v6.319h4.378v-9.296H313.605z M304.441,227.72c3.588-1.418,7.357-4.382,10.601-6.786v-2.95H287.94v2.95h20.326
			c-2.548,2.077-5.046,3.242-8.174,4.552v2.912h-17.986v2.785h17.986v6.37c0.117,1.749-0.809,2.566-2.78,2.459h-5.492v2.949h7.057
			c3.822,0.107,5.676-1.531,5.559-4.916v-1.126l0.005,0v-5.737h16.522v-2.785h-16.522V227.72z"/>
		<path fill="#b5b5b6" d="M376.806,240.293c-1.39,0.107-2.028-0.492-1.911-1.803v-12.906h6.999v-2.786h-26.045v2.786h5.698
			c0,8.911-2.677,12.162-7.422,15.222v2.142c7.527-2.842,11.591-7.458,11.591-17.364h5.009v12.906
			c-0.117,3.057,1.504,4.532,4.865,4.425h6.916v-2.622H376.806z M356.958,219.389h23.559v-2.95h-23.559V219.389z M359.684,210.882
			h18.749v3.344h3.996v-5.966h-11.063v-2.926h-4.865v2.926h-10.988v5.966h4.17V210.882z M353.541,206.371h-11.578v36.577h3.648
			v-33.791h3.582l-1.597,10.576h-0.011v2.754h2.731v7.535c0,2.056-1.047,4.58-2.997,5.965v1.521c3.327-1.09,6.693-4.397,6.693-8.633
			v-9.141h-2.72L353.541,206.371z"/>
	</g>
	<g>
		<path fill="#b5b5b6" d="M435.254,176.489c-4.598-1.997-8.927-4.751-12.803-8.174l-0.978-0.859l0.767-1.023
			c4.145-5.539,7.223-11.845,9.189-18.679c1.984-6.868,2.996-14.739,2.996-23.311c0-20.373-6.016-36.864-17.875-49.073
			c-11.838-12.233-27.824-18.396-47.488-18.396c-8.753,0-16.879,1.248-24.146,3.743c-7.243,2.481-13.812,6.234-19.555,11.184
			c-7.141,6.176-12.622,13.774-16.232,22.514c-3.599,8.787-5.44,18.89-5.44,30.03c0,20.37,5.992,36.864,17.823,49.022
			c11.821,12.141,27.811,18.304,47.557,18.304c6.463,0,12.649-0.695,18.413-2.059c5.747-1.363,11.075-3.354,15.843-5.941
			l0.941-0.552l0.746,0.835c4.417,4.847,9.656,8.763,15.581,11.623c5.668,2.727,12.012,4.503,18.918,5.246l8.739-20.772
			C443.68,179.503,439.318,178.289,435.254,176.489 M394.652,155.636c-6.129,7.553-14.722,11.398-25.588,11.398
			c-10.822,0-19.415-3.859-25.564-11.47c-6.064-7.502-9.145-17.97-9.145-31.12c0-13.103,3.092-23.594,9.196-31.172
			c6.183-7.656,14.769-11.548,25.513-11.548c10.785,0,19.395,3.879,25.517,11.456c6.098,7.502,9.186,18.031,9.186,31.264
			C403.766,137.686,400.698,148.191,394.652,155.636"/>
		<path fill="#b5b5b6" d="M74.727,191.836c17.8,0,31.282-3.348,40.069-9.951c8.779-6.568,13.231-15.973,13.231-27.954
			c0-6.199-0.844-11.513-2.51-15.791c-1.708-4.343-4.298-8.144-7.695-11.295c-3.444-3.242-7.813-6.093-12.986-8.474
			c-4.979-2.353-10.994-4.762-18.39-7.368c-3.306-1.117-6.445-2.218-9.325-3.27c-2.717-1.017-5.237-2.223-7.492-3.584
			c-2.18-1.332-3.883-2.831-5.065-4.457c-1.206-1.658-1.818-3.715-1.818-6.113c0-4.058,1.656-7.1,4.92-9.039
			c1.953-1.175,6.212-3.149,12.783-3.149c2.053,0,4.205,0.194,6.396,0.577c7.047,1.265,11.974,4.195,16.957,10.098l20.805-15.788
			c-10.125-12.665-24.591-19.086-42.999-19.086c-7.662,0-14.631,0.907-20.714,2.697c-6.086,1.776-11.333,4.367-15.597,7.701
			c-4.293,3.361-7.639,7.459-9.943,12.179c-2.324,4.767-3.502,10.175-3.502,16.072c0,5.929,1.112,11.02,3.305,15.134
			c2.191,4.123,5.069,7.681,8.554,10.576c3.516,2.908,7.524,5.351,11.914,7.262c4.455,1.922,8.935,3.645,13.316,5.119
			c10.2,3.225,17.478,6.295,21.628,9.122c4.218,2.821,6.357,6.422,6.357,10.702c0,1.211-0.283,5.419-3.919,8.696
			c-2.102,1.868-7.087,4.999-16.86,4.999c-0.466,0-0.942-0.007-1.428-0.022c-8.941-0.226-17.402-3.802-23.847-10.075l-21.591,16.44
			C40.046,185.765,55.334,191.836,74.727,191.836z"/>
		<path fill="#b5b5b6" d="M233.722,149.106V90.597h-26.283v62.411c0,26.124,12.061,38.828,36.886,38.828
			c8.5,0,17.922-3.175,21.54-4.485l0.113,2.149h26.172V90.597h-26.285c0,0,0,73.521,0,74.054c-5.638,3.573-14.504,5.03-21.599,3.396
			C237.175,166.412,233.722,161.974,233.722,149.106z"/>
		<path fill="#b5b5b6" d="M198.552,112.66V90.941c0,0-29.213,0-30.198,0c0-0.972,0-20.951,0-20.951h-26.48v20.951h-12.057v21.719
			h12.057v43.037c0,11.83,2.059,20.042,6.454,25.88c5.143,6.888,13.537,10.259,25.61,10.259c9.721,0,19.148-2.14,24.613-3.825V170.4
			c-3.381,0.855-19.411,5.881-27.252-2.549c-2.335-2.51-2.946-9.469-2.946-13.461v-41.73H198.552z"/>
		<g>
			<path fill="#b5b5b6" d="M468.708,127.094c2.935,6.792,1.447,11.77-0.617,13.955c-2.002,2.12-4.89,3.308-8.219,3.308
				c-3.267,0-5.935-0.894-8.004-2.71c-2.083-1.767-3.127-4.102-3.127-6.882c0-2.685,0.924-4.743,2.767-6.184
				c1.827-1.451,4.461-2.163,7.854-2.163l1.197,0.025v13.851c4.708,0.026,6.39-2.592,6.39-7.129c0-1.644-0.438-3.677-1.317-6.072
				H468.708z M457.645,140.137v-9.7c-3.985,0-5.489,2.296-5.368,4.745C452.372,137.102,453.66,139.762,457.645,140.137"/>
			<path fill="#b5b5b6" d="M468.708,83.842c2.935,6.792,1.447,11.77-0.617,13.955c-2.002,2.12-4.89,3.308-8.219,3.308
				c-3.267,0-5.935-0.894-8.004-2.71c-2.083-1.767-3.127-4.102-3.127-6.882c0-2.685,0.924-4.743,2.767-6.184
				c1.827-1.451,4.461-2.163,7.854-2.163l1.197,0.025v13.851c4.708,0.026,6.39-2.592,6.39-7.129c0-1.644-0.438-3.677-1.317-6.072
				H468.708z M457.645,96.885v-9.7c-3.985,0-5.489,2.296-5.368,4.745C452.372,93.85,453.66,96.51,457.645,96.885"/>
			<path fill="#b5b5b6" d="M448.805,152.185h17.41c1.716,4.167,1.172,7.599-0.502,8.989c-0.613,0.509-1.784,0.692-3.382,0.692
				h-13.526v3.85h14.768c1.978,0,3.534-0.572,4.722-1.662c3.18-2.92,2.666-8.234,1.627-11.869h0.557v-3.85h-4.618
				c-5.124,0-17.056,0-17.056,0V152.185z"/>
			<path fill="#b5b5b6" d="M448.805,108.963h17.41c1.716,4.167,1.172,7.599-0.502,8.989c-0.613,0.509-1.784,0.692-3.382,0.692
				h-13.526v3.85h14.768c1.978,0,3.534-0.572,4.722-1.662c3.18-2.92,2.666-8.234,1.627-11.869h0.557v-3.85h-4.618
				c-5.124,0-17.056,0-17.056,0V108.963z"/>
		</g>
	</g>
</g>
</svg>
