<?xml version="1.0" encoding="utf-8"?>
<!-- Generator: Adobe Illustrator 17.0.0, SVG Export Plug-In . SVG Version: 6.00 Build 0)  -->
<!DOCTYPE svg PUBLIC "-//W3C//DTD SVG 1.1//EN" "http://www.w3.org/Graphics/SVG/1.1/DTD/svg11.dtd">
<svg version="1.1" id="图层_1" xmlns="http://www.w3.org/2000/svg" xmlns:xlink="http://www.w3.org/1999/xlink" x="0px" y="0px"
	 width="186.5px" height="47.5px" viewBox="0 0 186.5 47.5" enable-background="new 0 0 186.5 47.5" xml:space="preserve">
<g>
	<g>
		<g>
			<g>
				<path fill="#B5B5B6" d="M40.71,19.908L28.413,21.52c0.477,2.16,2.342,3.22,4.793,3.22c1.977,0,4.1-0.475,5.563-1.205l1.682,4.46
					c-1.792,0.843-4.755,1.428-7.721,1.428c-6.842,0-10.208-4.462-10.208-10.319c0-6.036,3.513-10.281,9.441-10.281
					c5.745,0,8.817,3.841,8.817,9.258C40.78,18.703,40.78,19.287,40.71,19.908z M31.815,13.069c-2.122,0-3.768,1.462-3.804,4.718
					l6.951-0.877C34.962,14.423,33.755,13.069,31.815,13.069z"/>
				<path fill="#B5B5B6" d="M60.685,19.908L48.392,21.52c0.474,2.16,2.34,3.22,4.794,3.22c1.975,0,4.097-0.475,5.561-1.205
					l1.683,4.46c-1.792,0.843-4.758,1.428-7.72,1.428c-6.842,0-10.213-4.462-10.213-10.319c0-6.036,3.515-10.281,9.445-10.281
					c5.743,0,8.818,3.841,8.818,9.258C60.76,18.703,60.76,19.287,60.685,19.908z M51.794,13.069c-2.124,0-3.77,1.462-3.806,4.718
					l6.953-0.877C54.941,14.423,53.733,13.069,51.794,13.069z"/>
				<polygon fill="#B5B5B6" points="63.975,18.376 69.137,12.85 69.137,0.26 63.173,0.26 63.173,28.988 69.137,28.988 
					69.137,24.205 				"/>
				<polygon fill="#B5B5B6" points="76.343,28.988 67.484,18.412 75.759,9.264 83.582,9.264 75.063,18.445 84.093,28.988 				"/>
				<polygon fill="#B5B5B6" points="165.568,28.988 174.601,18.445 166.082,9.264 173.904,9.264 182.178,18.412 173.318,28.988 				
					"/>
				<circle fill="#B5B5B6" cx="184.032" cy="26.664" r="2.488"/>
				<path fill="#B5B5B6" d="M11.239,13.668v3.768l2.978-0.375v6.873c-0.403,0.149-1.099,0.294-2.05,0.294
					c-2.891,0-5.563-2.857-5.563-8.527c0-5.707,2.929-8.38,6.806-8.38c2.013,0,3.588,0.44,4.611,1.028
					c1.183,0.653,1.903,1.328,1.903,1.328V3.48c-1.351-0.806-4.025-1.425-6.77-1.425c-7.976,0-12.768,5.558-12.768,13.681
					c0,8.089,4.428,13.688,12.22,13.688c3.111,0,5.927-0.621,7.428-1.428V12.557L11.239,13.668z"/>
			</g>
		</g>
		<path fill="#B5B5B6" d="M95.799,8.97c-0.684,0-1.411,0.093-2.089,0.243v2.991c0.462-0.08,0.942-0.122,1.394-0.122
			c3.184,0,5.232,2.558,5.232,6.878c0,5.047-2.343,7.248-5.525,7.248c-1.135,0-2.268-0.258-2.855-0.516V14.876v-2.138V9.776V7.133
			V0.26h-3.987v27.736c1.535,0.77,4.062,1.391,6.624,1.391c5.888,0,9.73-3.29,9.73-10.721C104.323,12.63,100.885,8.97,95.799,8.97z"
			/>
		<path fill="#B5B5B6" d="M155.109,8.862c-5.818,0-9.81,3.183-9.81,9.986c0,5.965,3.479,9.406,8.456,9.406
			c0.73,0,1.51-0.093,2.236-0.25v-2.966c-0.494,0.087-1.005,0.144-1.469,0.144c-3.111,0-5.198-2.163-5.198-6.479
			c0-4.755,2.381-6.732,5.491-6.732c1.207,0,2.302,0.254,2.928,0.512v11.998v2.965v1.464c0,3.183-1.573,4.905-4.83,4.905
			c-2.123,0-4.209-0.553-5.489-1.245l-1.171,3.147c1.646,0.806,4.135,1.5,7.026,1.5c5.196,0,8.414-2.927,8.414-8.306V10.251
			C160.121,9.445,157.708,8.862,155.109,8.862z"/>
		<path fill="#B5B5B6" d="M114.716,8.862c-2.635,0-5.309,0.692-6.881,1.389l1.025,2.742c1.318-0.618,3.584-1.206,5.453-1.206
			c2.523,0,4.172,0.879,4.172,3.37v0.729v0.512v2.672v3.972v2.944c-0.624,0.29-2.125,0.512-3.405,0.512
			c-3.037,0-4.647-1.283-4.647-3.366c0-2.998,2.936-3.676,6.299-3.95v-2.665c-5.308,0.448-10.067,1.739-10.067,6.688
			c0,3.877,2.855,6.182,8.525,6.182c2.781,0,5.671-0.621,7.098-1.391V15.554C122.289,10.687,119.435,8.862,114.716,8.862z"/>
		<g>
			<path fill="#B5B5B6" d="M133.85,8.862c-3.072,0-5.598,0.583-7.573,1.389v4.28c0.853-0.519,2.25-1.274,3.988-1.866
				c0.805-0.331,2.158-0.584,3.624-0.584c2.742,0,4.135,1.425,4.135,3.727v13.179h4.023V15.446
				C142.046,11.276,139.375,8.862,133.85,8.862z"/>
			<path fill="#B5B5B6" d="M126.276,16.547v12.441h3.988V14.491C128.649,15.032,127.177,15.929,126.276,16.547z"/>
		</g>
	</g>
	<g>
		<path fill="#B5B5B6" d="M66.182,42.598l1.565-0.185v1.026l-1.565,0.185v3.251h-1.617v-3.057l-4.842,0.574v-1.028l4.842-0.577
			v-8.256h1.617V42.598z M63.589,38.1l-1.139-2.748h-1.664l1.138,2.748H63.589z M61.924,41.595h1.665L62.45,38.85h-1.664
			L61.924,41.595z M58.142,40.133l-0.058-0.022v-0.809h1.785v-1.009h-1.785v-2.428c0.683-0.085,1.285-0.178,1.785-0.266v-1.052
			c-0.98,0.185-3.125,0.526-5.677,0.58v1.013c0.807-0.014,1.568-0.058,2.277-0.115v2.268h-2.277v1.009h1.83
			c-0.341,2.116-1.644,3.979-2.48,4.991l0.86,1.093c0.384-0.443,1.468-1.909,2.067-3.79v5.28h1.615v-5.816
			c0.805,0.584,1.333,1.23,1.541,1.507l1.065-0.752C60.384,41.516,59.542,40.776,58.142,40.133z"/>
		<path fill="#B5B5B6" d="M40.717,36.234h1.788v1.009h-1.788v1.542h1.788v1.016h-1.788v1.848h1.736v1.009h-1.736
			c-0.008,2.669-2.117,3.904-4.157,4.179v-1.045c1.592-0.346,2.537-1.507,2.542-3.134h-2.542V41.65h2.543v-1.848h-2.492v-1.016
			h2.492v-1.542h-2.492v-1.009h2.492v-1.703h1.613V36.234z M49.481,38.699h-1.653l1.087-3.566h-5.453v11.742h1.617V36.149h1.886
			l-1.084,3.559h2.387l0.034,0.115c0.363,1.179,0.168,2.787-0.901,3.583c-0.413,0.305-0.92,0.458-1.553,0.461v1.01
			c1.388-0.005,2.278-0.448,2.779-0.821c1.595-1.184,1.779-3.471,1.034-5L49.481,38.699z"/>
		<path fill="#B5B5B6" d="M31.046,38.158l0.315-0.484v0.131h1.613v-2.507H27.13v-0.767h-1.613v0.767h-5.845v2.507h1.614v-1.495
			h10.075v1.154H24.51c0.109-0.185,0.19-0.363,0.249-0.523h-1.668c-0.345,0.714-1.192,1.63-3.24,2.185l0.506,0.962
			c0.766-0.2,1.401-0.439,1.931-0.701c0.086,0.044,0.173,0.088,0.262,0.127c0.352,0.156,1.121,0.475,2.218,0.864
			c-1.34,0.389-3.045,0.755-5.221,1.05v1.035c0.552-0.073,1.081-0.149,1.583-0.229v4.504H31.52v-4.559H21.449
			c2.108-0.353,3.766-0.777,5.069-1.227c1.772,0.54,4.019,1.103,6.584,1.479v-1.038c-1.854-0.29-3.531-0.685-4.962-1.084
			C29.965,39.464,30.735,38.633,31.046,38.158z M22.744,43.194h7.159v2.533h-7.159V43.194z M26.475,39.802
			c-1.581-0.511-2.66-0.962-3.041-1.125c0.082-0.07,0.162-0.134,0.236-0.2h5.265l-0.444,0.302
			C28.033,39.091,27.383,39.442,26.475,39.802z"/>
		<path fill="#B5B5B6" d="M74.501,40.289l1.141-0.631V41l-1.141,0.633v3.071c0,1.049-1.074,2.134-2.873,2.134h-0.42v-1.013h0.42
			c0.951,0,1.26-0.755,1.26-1.121v-2.172l-1.68,0.937v-1.347l1.68-0.937v-3.441h-1.68v-1.013h1.68v-2.2h1.613v2.2h1.139v1.013
			h-1.139V40.289z M85.023,45.669v1.121c-1.347-0.367-3.057-1.099-4.592-2.145c-1.533,1.045-3.245,1.778-4.592,2.145v-1.121
			c1.18-0.395,2.44-1.013,3.554-1.804c-1.377-1.155-2.47-2.586-2.782-4.248l-0.105-0.563h1.182h1.938v-1.81h-3.212v-1.009h3.212
			v-1.703h1.613v1.703h3.526v1.009h-3.526v1.81h2.189h0.933l-0.107,0.563c-0.311,1.663-1.406,3.093-2.785,4.248
			C82.585,44.656,83.844,45.273,85.023,45.669z M82.428,40.289l0.084-0.222h-4.16l0.082,0.222c0.378,1.016,1.102,1.943,1.997,2.748
			C81.327,42.232,82.05,41.305,82.428,40.289z"/>
		<path fill="#B5B5B6" d="M16.087,46.875h-1.795c-0.748-0.901-1.561-1.678-2.38-2.353c-0.584,0.784-1.286,1.583-2.126,2.353H7.8
			c1.252-1.028,2.216-2.161,2.956-3.232c-0.78-0.548-1.543-1.006-2.237-1.376c-0.016,1.612-0.756,3.561-2.376,4.472v-1.807
			c0.485-0.763,0.765-1.751,0.765-2.73v-0.716c-0.555-0.239-0.987-0.395-1.222-0.479C5.671,41.003,5.654,41,5.64,40.993v-1.115
			c0.201,0.054,0.417,0.12,0.639,0.185c0.538,0.175,2.713,0.926,5.146,2.538c0.68-1.159,1.086-2.16,1.294-2.759l0.076-0.219H9.723
			l1.776-3.631H8.523v4.245c-0.674-0.302-1.23-0.512-1.615-0.65v-1.303H5.057v8.59H3.443v-5.534
			c-0.606,1.808-1.487,3.115-1.952,3.722l-0.829-1.054c1.065-1.347,2.279-3.354,2.517-5.724H0.953v-1.01h2.49v-2.745h1.614v2.745
			h1.851v-2.294h6.772l-1.777,3.629h2.789l-0.131,0.574c-0.027,0.117-0.476,2.009-1.922,4.28
			C13.833,44.384,15.033,45.509,16.087,46.875z"/>
	</g>
</g>
</svg>
