<?xml version="1.0" encoding="utf-8"?>
<!-- Generator: Adobe Illustrator 17.0.0, SVG Export Plug-In . SVG Version: 6.00 Build 0)  -->
<!DOCTYPE svg PUBLIC "-//W3C//DTD SVG 1.1//EN" "http://www.w3.org/Graphics/SVG/1.1/DTD/svg11.dtd">
<svg version="1.1" id="图层_1" xmlns="http://www.w3.org/2000/svg" xmlns:xlink="http://www.w3.org/1999/xlink" x="0px" y="0px"
	 width="259.487px" height="256.487px" viewBox="-219.894 2134.989 259.487 256.487"
	 xml:space="preserve">
<g>
	<path fill="rgb(41, 171, 226)" d="M-28.447,2229.168h-22.417c-6.434,0-10.688-3.944-10.688-10.372v-22.734h-38.003
		c-3.079,0.007-6.409,3.562-6.423,6.645v37.1h77.53V2229.168z M-94.015,2219.431h25.868c1.547,0,2.814,1.264,2.814,2.818
		c0,1.561-1.268,2.832-2.814,2.832h-25.868c-1.561,0-2.821-1.271-2.821-2.832C-96.836,2220.695-95.576,2219.431-94.015,2219.431z
		 M-40.795,2236.935h-53.219c-1.561,0-2.821-1.258-2.821-2.821c0-1.561,1.26-2.818,2.821-2.818h53.219
		c1.553,0,2.821,1.256,2.821,2.818C-37.974,2235.677-39.242,2236.935-40.795,2236.935z"/>
	<path fill="rgb(41, 171, 226)" d="M-50.863,2224.368h19.488c-0.175-0.215-0.301-0.397-0.494-0.628c-2.001-2.426-4.819-5.534-7.916-8.749
		c-5.714-5.936-12.409-12.284-16.652-15.678v19.483C-56.438,2221.873-53.932,2224.365-50.863,2224.368z"/>
	<path fill="rgb(41, 171, 226)" d="M-90.404,2135.731c-70.462,0-127.583,57.121-127.583,127.583s57.121,127.583,127.583,127.583
		s127.583-57.121,127.583-127.583S-19.942,2135.731-90.404,2135.731z M-20.151,2321.621c-0.004,7.701-6.237,13.937-13.957,13.955
		h-119.367c-0.061,0-0.095-0.021-0.147-0.029c-3.788-0.052-7.239-1.676-9.685-4.225c-2.503-2.592-4.042-6.158-4.042-10.052v-96.948
		c0-3.892,1.539-7.456,4.042-10.048c2.492-2.594,6.028-4.252,9.916-4.252h37.177v6.332h-37.177c-5.552,0-7.66,6.323-7.66,7.968
		v96.044c0,1.647,0.61,7.048,6.165,7.048c0.712-0.526,2.055-1.761,2.782-2.877c1.12-1.722,1.278-3.53,2.13-8.548l6.699-62.233
		c0.007-7.701,6.237-13.935,13.953-13.949h18.117v-37.1c0.011-6.445,5.216-11.654,11.65-11.654h40.075v0.034
		c0.139-0.012,0.276-0.034,0.383-0.034c0.834,0.021,1.31,0.209,1.783,0.378c0.44,0.19,0.838,0.406,1.253,0.646
		c0.813,0.501,1.69,1.13,2.671,1.891c1.948,1.513,4.293,3.552,6.857,5.898c5.091,4.692,10.952,10.579,15.485,15.57
		c3.036,3.348,5.431,6.215,6.774,8.378c0.362,0.587,0.67,1.13,0.913,1.819c0.118,0.367,0.236,0.777,0.247,1.396
		c0,0.104-0.036,0.25-0.05,0.381h0.05v13.092c5.596,1.821,9.642,7.061,9.653,13.255L-20.151,2321.621z"/>
	<path fill="rgb(41, 171, 226)" d="M-25.099,2246.603h-106.173c-1.579,0-2.993,0.639-4.053,1.681c-1.06,1.07-1.683,2.481-1.683,4.053
		l-6.975,64.843c0.011,4.722-0.985,8.557-2.488,11.597h114.415c1.575,0,2.997-0.637,4.06-1.683c1.049-1.056,1.679-2.469,1.679-4.048
		l6.964-70.709c0-1.572-0.637-2.983-1.697-4.053C-22.099,2247.242-23.509,2246.603-25.099,2246.603z M-97.423,2270.799
		c0.161-1.4,0.931-2.105,1.991-2.359c0.401-7.447,4.995-13.328,11.865-13.328c6.914,0,11.508,5.931,11.869,13.425
		c0.899,0.319,1.54,1.006,1.679,2.263c0.218,1.937-0.813,4.544-2.478,5.281c-1.518,6.078-5.156,11.608-11.071,11.608
		c-5.879,0-9.506-5.467-11.045-11.506C-96.463,2275.663-97.652,2272.863-97.423,2270.799z M-66.424,2321.105
		c-0.036-3.811-0.061-9.744-0.061-11.056c0-1.81-0.548-3.135-1.168-4.191v15.514c-4.837,0.333-10.773,0.522-16.069,0.522
		c-5.295,0-11.357-0.19-16.194-0.522v-15.514c-0.494,1.156-1.375,2.535-1.375,4.345c0,1.316-0.022,7.252-0.057,11.06
		c-3.681-0.285-6.366-0.673-9.649-1.129c0.046-5.306,0.104-12.302,0.168-13.047c0.688-8.291,3.169-10.705,4.519-12.087
		c3.681-2.03,11.035-4.379,13.838-5.242c0.082-0.025,0.158-0.048,0.243-0.077c0.054-0.009,0.093-0.023,0.143-0.041
		c0.258,2.811,4.297,20.505,4.297,20.505l2.381-13.917l-1.403-3.298l2.291-2.168h0.716h0.175h0.713l2.291,2.168
		c0,0-1.453,3.28-1.407,3.298c0.036,0.021,2.381,13.917,2.381,13.917s4.039-17.701,4.297-20.505c0.054,0.018,0.1,0.032,0.157,0.048
		c0.072,0.025,0.147,0.045,0.219,0.066c2.793,0.859,10.161,3.215,13.845,5.245c1.357,1.382,3.831,3.797,4.522,12.087
		c0.064,0.745,0.118,7.741,0.165,13.047C-59.722,2320.591-62.743,2320.824-66.424,2321.105z"/>
</g>
</svg>
