<?xml version="1.0" encoding="utf-8"?>
<!-- Generator: Adobe Illustrator 17.0.0, SVG Export Plug-In . SVG Version: 6.00 Build 0)  -->
<!DOCTYPE svg PUBLIC "-//W3C//DTD SVG 1.1//EN" "http://www.w3.org/Graphics/SVG/1.1/DTD/svg11.dtd">
<svg version="1.1" id="图层_1" xmlns="http://www.w3.org/2000/svg" xmlns:xlink="http://www.w3.org/1999/xlink" x="0px" y="0px"
	 width="245.988px" height="247.488px" viewBox="161.087 2151.488 245.988 247.488"
	 enable-background="new 161.087 2151.488 245.988 247.488" xml:space="preserve">
<g>
	<path fill="rgb(41, 171, 226)" d="M284.705,2153.263c-67.109,0-121.512,54.403-121.512,121.512c0,67.109,54.403,121.512,121.512,121.512
		s121.512-54.403,121.512-121.512C406.217,2207.666,351.814,2153.263,284.705,2153.263z M340.325,2214.036h-98.295
		c-6.205,0-11.253,5.048-11.253,11.253c0,6.205,5.049,11.253,11.253,11.253h101.986v107.034H242.029
		c-10.275,0-18.635-8.359-18.635-18.635v-99.653c0-10.275,8.359-18.635,18.635-18.635h98.295c2.038,0,3.69,1.652,3.69,3.691
		C344.015,2212.384,342.363,2214.036,340.325,2214.036z M344.015,2225.018c0,2.038-1.652,3.691-3.69,3.691h-97.48
		c-2.039,0-3.691-1.653-3.691-3.691c0-2.038,1.652-3.691,3.691-3.691h97.48C342.363,2221.327,344.015,2222.979,344.015,2225.018z"/>
	<path fill="rgb(41, 171, 226)" d="M230.776,2324.943c0,6.205,5.048,11.253,11.253,11.253h94.605v-92.272h-94.605
		c-4.224,0-8.124-1.413-11.253-3.791V2324.943z M308.391,2281.605c-1.441-1.441-1.441-3.778,0-5.219
		c1.441-1.441,3.778-1.442,5.219,0l10.727,10.727c0.698,0.697,1.055,1.605,1.077,2.519c0.001,0.031,0.005,0.06,0.005,0.09
		c0,0.031-0.004,0.06-0.005,0.091c-0.022,0.914-0.379,1.822-1.077,2.519l-10.727,10.727c-0.721,0.72-1.665,1.081-2.61,1.081
		c-0.945,0-1.889-0.36-2.61-1.081c-1.441-1.441-1.441-3.778,0-5.219l8.117-8.117L308.391,2281.605z M267.541,2323.782l24.776-62.704
		c0.749-1.896,2.893-2.825,4.789-2.076c1.896,0.749,2.825,2.893,2.076,4.789l-24.776,62.704c-0.573,1.45-1.963,2.335-3.434,2.335
		c-0.451,0-0.91-0.083-1.355-0.259C267.721,2327.822,266.792,2325.678,267.541,2323.782z M245.397,2287.113l10.727-10.727
		c1.441-1.441,3.778-1.441,5.219,0c1.442,1.441,1.442,3.778,0,5.219l-8.116,8.117l8.116,8.116c1.441,1.441,1.441,3.778,0,5.22
		c-0.72,0.72-1.665,1.081-2.61,1.081c-0.944,0-1.889-0.36-2.61-1.081l-10.726-10.726c-0.811-0.811-1.166-1.906-1.064-2.964
		C244.412,2288.545,244.767,2287.743,245.397,2287.113z"/>
</g>
</svg>
