<?xml version="1.0" encoding="utf-8"?>
<!-- Generator: Adobe Illustrator 17.0.0, SVG Export Plug-In . SVG Version: 6.00 Build 0)  -->
<!DOCTYPE svg PUBLIC "-//W3C//DTD SVG 1.1//EN" "http://www.w3.org/Graphics/SVG/1.1/DTD/svg11.dtd">
<svg version="1.1" id="图层_1" xmlns="http://www.w3.org/2000/svg" xmlns:xlink="http://www.w3.org/1999/xlink" x="0px" y="0px"
	 width="402.667px" height="102.01px" viewBox="-900.167 2463.555 402.667 102.01"
	 enable-background="new -900.167 2463.555 402.667 102.01" xml:space="preserve">
<g>
	<path fill="#fff" d="M-706.505,2489.65h16.855v72.641h-16.855v-7.607c-6.911,6.464-17.345,9.695-25.299,9.695
		c-10.044,0-18.347-3.629-24.91-10.889c-6.514-7.407-9.77-16.655-9.77-27.743c0-10.889,3.256-19.962,9.77-27.222
		c6.513-7.259,14.667-10.889,24.462-10.889c8.452,0,19.035,3.48,25.747,10.44V2489.65z M-749.33,2525.747
		c0,6.961,1.865,12.629,5.594,17.004c3.828,4.426,8.651,6.638,14.468,6.638c6.215,0,11.236-2.137,15.065-6.414
		c3.828-4.425,5.743-10.043,5.743-16.854s-1.915-12.43-5.743-16.855c-3.829-4.326-8.8-6.488-14.916-6.488
		c-5.769,0-10.59,2.188-14.469,6.562C-747.417,2513.765-749.33,2519.233-749.33,2525.747z"/>
	<path fill="#fff" d="M-823.689,2529.908c0,3.503,0.529,6.451,1.59,8.847c1.058,2.397,2.371,4.309,3.939,5.736
		c1.565,1.43,3.27,2.443,5.114,3.041c1.843,0.601,3.64,0.898,5.391,0.898c2.026,0,3.802-0.253,5.322-0.76
		c1.521-0.506,2.972-1.313,4.354-2.419c1.382-1.106,2.717-2.465,4.009-4.078c1.289-1.611,2.717-3.524,4.285-5.736l16.173,8.432
		c-3.78,6.912-8.595,12.026-14.445,15.344c-5.854,3.317-12.925,4.977-21.219,4.977c-5.715,0-10.806-0.923-15.274-2.765
		c-4.471-1.843-8.248-4.399-11.334-7.672c-3.089-3.271-5.438-7.141-7.05-11.611c-1.614-4.469-2.419-9.283-2.419-14.445
		c0-13.084,3.2-23.175,9.606-30.272c6.404-7.095,15.227-10.644,26.471-10.644c6.727,0,12.372,1.175,16.934,3.525
		c4.562,2.35,8.271,5.528,11.128,9.537c2.854,4.009,4.906,8.618,6.15,13.823c1.244,5.207,1.866,10.622,1.866,16.242H-823.689z
		 M-794.661,2516.638c-0.186-2.672-0.761-4.907-1.728-6.704c-0.968-1.797-2.143-3.248-3.525-4.354
		c-1.382-1.106-2.902-1.888-4.562-2.351c-1.659-0.46-3.272-0.691-4.838-0.691c-1.568,0-3.158,0.277-4.77,0.83
		c-1.613,0.553-3.109,1.406-4.492,2.557c-1.382,1.153-2.557,2.627-3.524,4.424s-1.59,3.895-1.866,6.289H-794.661z"/>
	<path fill="#fff" d="M-681.064,2488.716h21.564v6.496c1.382-1.658,2.948-3.017,4.699-4.077c1.75-1.059,3.595-1.912,5.529-2.558
		c1.936-0.644,3.847-1.105,5.736-1.382c1.888-0.276,3.663-0.415,5.322-0.415c4.237,0,7.948,0.829,11.128,2.488
		c3.179,1.659,5.965,4.102,8.362,7.326c3.501-3.594,7.233-6.128,11.197-7.603c3.961-1.474,8.107-2.212,12.44-2.212
		c1.749,0,3.939,0.207,6.565,0.622c2.627,0.415,5.115,1.313,7.465,2.695c2.35,1.383,4.376,3.342,6.082,5.875
		c1.704,2.535,2.558,5.922,2.558,10.16v56.121h-21.564v-42.989c0-5.253-0.808-9.076-2.419-11.474
		c-1.613-2.395-4.492-3.594-8.64-3.594c-3.594,0-6.312,1.199-8.155,3.594c-1.845,2.397-2.765,5.484-2.765,9.262v45.201h-21.563
		v-46.03c0-3.595-0.715-6.497-2.143-8.709c-1.43-2.212-4.216-3.317-8.363-3.317c-4.332,0-7.326,1.223-8.984,3.663
		c-1.659,2.442-2.488,5.322-2.488,8.64v45.754h-21.564V2488.716z"/>
	<path fill="#fff" d="M-512.374,2510.418c-1.105-1.29-2.467-2.419-4.077-3.387c-1.614-0.968-3.342-1.797-5.184-2.488
		c-1.845-0.691-3.732-1.196-5.668-1.521c-1.936-0.322-3.732-0.484-5.391-0.484c-2.674,0-4.886,0.484-6.636,1.452
		c-1.751,0.968-2.626,2.373-2.626,4.216c0,2.121,1.082,3.687,3.248,4.7c2.165,1.015,4.86,1.844,8.087,2.487
		c3.225,0.646,6.704,1.337,10.437,2.074c3.732,0.738,7.209,1.844,10.436,3.317c3.225,1.475,5.92,3.549,8.086,6.22
		c2.164,2.674,3.248,6.313,3.248,10.921c0,4.885-0.967,8.984-2.902,12.302c-1.936,3.318-4.492,6.014-7.672,8.087
		c-3.179,2.073-6.752,3.572-10.713,4.492c-3.963,0.92-7.927,1.383-11.888,1.383c-4.056,0-7.695-0.301-10.92-0.898
		c-3.227-0.601-6.244-1.474-9.055-2.627c-2.812-1.151-5.507-2.647-8.086-4.492c-2.581-1.843-5.207-4.009-7.879-6.497l13.408-11.611
		c3.317,3.227,6.773,5.761,10.367,7.603c3.594,1.845,7.879,2.765,12.855,2.765c0.92,0,2.05-0.069,3.387-0.207
		c1.335-0.139,2.626-0.483,3.87-1.037c1.244-0.553,2.303-1.312,3.18-2.28c0.874-0.968,1.312-2.281,1.312-3.939
		c0-1.936-1.084-3.363-3.248-4.285c-2.166-0.92-4.861-1.704-8.087-2.351c-3.227-0.644-6.704-1.334-10.436-2.073
		c-3.732-0.736-7.212-1.842-10.437-3.317c-3.227-1.473-5.923-3.501-8.087-6.082c-2.166-2.579-3.248-6.034-3.248-10.367
		c0-4.607,0.92-8.547,2.765-11.818c1.842-3.271,4.237-5.944,7.188-8.018c2.948-2.073,6.266-3.57,9.953-4.492
		c3.685-0.921,7.417-1.383,11.196-1.383c5.713,0,11.312,0.946,16.795,2.834c5.481,1.89,10.713,4.492,15.689,7.81L-512.374,2510.418z
		"/>
	<g>
		<path fill="#fff" d="M-849.778,2503.461h-27.68v34.21c0,3.534,0.771,5.878,2.318,7.036c1.544,1.159,3.487,1.519,5.794,1.739
			c8.067,0.771,17.901-2.718,17.901-2.718l3.667,14.989c-9,4.25-23.473,5.588-26.342,5.588c-5.521,0-9.934-0.773-13.245-2.317
			c-3.312-1.544-5.852-3.585-7.616-6.126c-1.767-2.537-2.926-5.38-3.477-8.525c-0.554-3.146-0.828-6.317-0.828-9.521v-46.355l0,0
			v-16.894l0,0v-4.339l21.827-5v22.339h27.68V2503.461z"/>
	</g>
</g>
</svg>
