<?xml version="1.0" encoding="utf-8"?>
<!-- Generator: Adobe Illustrator 17.0.0, SVG Export Plug-In . SVG Version: 6.00 Build 0)  -->
<!DOCTYPE svg PUBLIC "-//W3C//DTD SVG 1.1//EN" "http://www.w3.org/Graphics/SVG/1.1/DTD/svg11.dtd">
<svg version="1.1" id="图层_1" xmlns="http://www.w3.org/2000/svg" xmlns:xlink="http://www.w3.org/1999/xlink" x="0px" y="0px"
	 width="245.988px" height="245.988px" viewBox="519.569 2151.488 245.988 245.988"
	 enable-background="new 519.569 2151.488 245.988 245.988" xml:space="preserve">
<g>
	<path fill="rgb(41, 171, 226)" d="M649.037,2335.816l51.695-20.582v-88.42l-51.695,20.584V2335.816z M662.451,2267.925l28.444-11.375v7.439
		l-28.444,11.375V2267.925z M662.451,2297.468l28.444-11.386v7.678l-28.444,11.385V2297.468z"/>
	<path fill="rgb(41, 171, 226)" d="M642.705,2153.263c-67.109,0-121.512,54.403-121.512,121.512c0,67.109,54.403,121.512,121.512,121.512
		s121.512-54.403,121.512-121.512C764.217,2207.666,709.814,2153.263,642.705,2153.263z M707.688,2315.439
		c0,2.91-1.771,5.519-4.477,6.603l-56.746,22.688c0,0-1.167,0.39-1.382,0.432c-0.456,0.09-0.916,0.137-1.378,0.137
		s-0.922-0.048-1.384-0.137c-0.215-0.042-1.382-0.416-1.382-0.416l-56.754-22.702c-2.693-1.083-4.463-3.693-4.463-6.603v-90.997
		c0-2.362,1.167-4.565,3.121-5.888s4.436-1.593,6.626-0.719l54.236,21.7l54.236-21.7c2.193-0.874,4.679-0.604,6.622,0.719
		c1.952,1.323,3.125,3.525,3.125,5.888V2315.439z"/>
	<path fill="rgb(41, 171, 226)" d="M587.345,2315.614l52.065,20.654v-88.418l-52.065-20.662V2315.614z M596.246,2258.102l28.444,11.387v7.678
		l-28.444-11.386V2258.102z M596.246,2287.886l28.444,11.373v7.441l-28.444-11.379V2287.886z"/>
</g>
</svg>
