<svg xmlns="http://www.w3.org/2000/svg">

<defs>
<symbol id="edit" viewBox="-633 -109 226 226">
  <path d="M-429.756-11.116c-4.593,0-8.317,3.725-8.317,8.318V74.56c0,4.588-3.732,8.318-8.319,8.318h-147.353
		c-4.588,0-8.318-3.73-8.318-8.318V-67.874c0-4.587,3.73-8.318,8.318-8.318h90.71c4.593,0,8.318-3.724,8.318-8.317
		c0-4.594-3.725-8.319-8.318-8.319h-90.71c-13.761,0-24.954,11.193-24.954,24.954V74.56c0,13.761,11.193,24.954,24.954,24.954
		h147.353c13.76,0,24.954-11.193,24.954-24.954V-2.798C-421.438-7.391-425.163-11.116-429.756-11.116L-429.756-11.116z
		 M-429.756-11.116"/>
	<path d="M-409.867-70.329l-31.497-31.497c-3.119-3.119-8.642-3.119-11.762,0L-555.898,0.949
		c-0.782,0.78-1.4,1.71-1.818,2.731l-20.309,49.652c-1.239,3.03-0.587,6.507,1.67,8.878c1.598,1.684,3.789,2.589,6.031,2.589
		c0.92,0,1.851-0.152,2.75-0.469l51.803-18.159c1.177-0.412,2.248-1.084,3.129-1.967l102.775-102.772
		c1.559-1.561,2.436-3.676,2.436-5.882C-407.43-66.654-408.308-68.77-409.867-70.329L-409.867-70.329z M-543.951,13.97
		l18.107,18.107l-29.781,10.439L-543.951,13.97L-543.951,13.97z M-519.06,27.098l-19.732-19.732l91.548-91.548l19.732,19.734
		L-519.06,27.098L-519.06,27.098z M-519.06,27.098"/>
	<path d="M-450.433-67.689l-50.363,50.363c-1.625,1.625-1.625,4.257,0,5.881c0.813,0.813,1.877,1.219,2.941,1.219
		c1.064,0,2.128-0.406,2.94-1.219l50.363-50.363c1.626-1.625,1.626-4.257,0-5.881C-446.177-69.314-448.808-69.314-450.433-67.689
		L-450.433-67.689z M-450.433-67.689"/>
	<path d="M-511.628-6.494l-6.95,6.949c-1.625,1.624-1.625,4.256,0,5.881c0.813,0.813,1.877,1.219,2.941,1.219
		c1.064,0,2.128-0.406,2.94-1.219l6.95-6.949c1.624-1.625,1.624-4.256,0-5.881C-507.373-8.118-510.003-8.118-511.628-6.494
		L-511.628-6.494z M-511.628-6.494"/>
</symbol>

<symbol id="yes" viewBox="-290 -109 226 226">
	<path d="M-80.095-68.91c-1.826-1.825-4.223-2.831-6.749-2.831s-4.923,1.005-6.753,2.834l-84.123,84.404
		l-31.449-38.769c-0.028-0.035-0.058-0.069-0.087-0.103c-1.878-2.112-4.568-3.324-7.381-3.324c-2.196,0-4.268,0.729-5.991,2.107
		c-0.041,0.033-0.08,0.066-0.119,0.101c-3.904,3.47-4.439,9.343-1.213,13.376l42.516,52.927c0.535,0.665,1.328,1.072,2.181,1.117
		c0.053,0.003,0.105,0.004,0.158,0.004c0.796,0,1.563-0.317,2.127-0.885l96.883-97.461C-76.311-59.197-76.311-65.125-80.095-68.91z"
		/>
	<path d="M-87.743-11.116c-4.593,0-8.317,3.725-8.317,8.318V74.56c0,4.588-3.732,8.318-8.319,8.318h-147.353
		c-4.588,0-8.318-3.73-8.318-8.318V-67.874c0-4.587,3.73-8.318,8.318-8.318h90.71c4.593,0,8.318-3.724,8.318-8.317
		c0-4.594-3.725-8.319-8.318-8.319h-90.71c-13.761,0-24.954,11.193-24.954,24.954V74.56c0,13.761,11.193,24.954,24.954,24.954
		h147.353c13.76,0,24.954-11.193,24.954-24.954V-2.798C-79.425-7.391-83.15-11.116-87.743-11.116L-87.743-11.116z M-87.743-11.116"
		/>
</symbol>

<symbol id="weibo" viewBox="-263 220 178 178">
  <g>
		<path d="M-129.197,308.392c-6.992-1.355-3.596-5.113-3.596-5.113s6.844-11.285-1.35-19.478
			c-10.158-10.159-34.84,1.288-34.84,1.288c-9.424,2.933-6.925-1.331-5.59-8.58c0-8.542-2.928-22.998-28.039-14.456
			c-25.082,8.585-46.621,38.656-46.621,38.656c-14.976,19.994-12.996,35.437-12.996,35.437
			c3.744,34.101,39.977,43.463,68.159,45.686c29.656,2.318,69.672-10.226,81.805-35.999
			C-100.132,320.01-122.181,309.794-129.197,308.392z M-191.876,372.211c-29.432,1.379-53.227-13.383-53.227-33.023
			c0-19.669,23.795-35.441,53.227-36.796c29.46-1.359,53.298,10.779,53.298,30.4C-138.579,352.432-162.416,370.871-191.876,372.211z
			"/>
		<path d="M-197.748,315.341c-29.604,3.468-26.184,31.197-26.184,31.197s-0.3,8.785,7.941,13.254
			c17.322,9.381,35.155,3.701,44.169-7.936C-162.802,340.218-168.096,311.902-197.748,315.341z M-205.212,354.264
			c-5.528,0.649-9.983-2.537-9.983-7.164c0-4.602,3.959-9.424,9.486-10.001c6.348-0.606,10.483,3.052,10.483,7.674
			C-195.225,349.38-199.708,353.634-205.212,354.264z M-187.761,339.403c-1.874,1.397-4.178,1.197-5.165-0.477
			c-1.035-1.64-0.649-4.264,1.25-5.642c2.194-1.626,4.474-1.159,5.461,0.477C-185.223,335.434-185.934,337.952-187.761,339.403z"/>
	</g>
	<path d="M-86.349,292.853c0.138-0.548,0.229-1.111,0.233-1.703c0.396-2.619,0.644-5.275,0.644-7.931
		c0-29.218-23.766-52.988-52.984-52.988c-4.049,0-7.326,3.281-7.326,7.326c0,4.045,3.277,7.326,7.326,7.326
		c21.138,0,38.332,17.199,38.332,38.337c0,2.356-0.215,4.717-0.639,7.011l0.086,0.014c-0.029,0.277-0.081,0.548-0.081,0.835
		c0,4.045,3.277,7.326,7.326,7.326c3.415,0,6.257-2.346,7.068-5.504h0.009C-86.354,292.886-86.354,292.867-86.349,292.853z"/>
	<path d="M-109.285,285.971c0.086-0.911,0.176-1.817,0.176-2.752c0-16.183-13.163-29.346-29.346-29.346
		c-3.372,0-6.105,2.733-6.105,6.105c0,3.372,2.733,6.105,6.105,6.105c9.448,0,17.137,7.688,17.137,17.137
		c0,0.749-0.047,1.483-0.138,2.203l0.143,0.019c-0.029,0.243-0.143,0.458-0.143,0.711c0,3.372,2.733,6.105,6.105,6.105
		c3.086,0,5.528-2.327,5.943-5.298l0.062,0.009c0.019-0.152,0.009-0.315,0.029-0.467c0.004-0.119,0.071-0.224,0.071-0.348
		C-109.247,286.085-109.285,286.033-109.285,285.971z"/>
</symbol>

<symbol id="weixin" viewBox="-597 207 200 200">
  <g>
		<path d="M-457.939,274.732c1.011,0,2.003,0.019,2.995,0.066c-5.247-28.569-34.757-50.441-70.375-50.441
			c-39.328,0-71.202,26.661-71.202,59.551c0,19.283,10.955,36.429,27.948,47.308c0.22,0.138,0.653,0.41,0.653,0.41l-6.882,21.553
			l25.74-13.111c0,0,0.806,0.233,1.211,0.348c7.078,1.97,14.656,3.038,22.531,3.038c1.607,0,3.2-0.062,4.784-0.148
			c-1.459-4.526-2.261-9.291-2.261-14.208C-522.796,299.074-493.75,274.732-457.939,274.732z M-500.542,253.718
			c5.523,0,9.992,4.331,9.992,9.682c0,5.341-4.469,9.682-9.992,9.682c-5.528,0-9.996-4.34-9.996-9.682
			C-510.539,258.048-506.07,253.718-500.542,253.718z M-550.097,273.082c-5.523,0-9.996-4.34-9.996-9.682
			c0-5.352,4.474-9.682,9.996-9.682c5.528,0,10.007,4.331,10.007,9.682C-540.09,268.741-544.568,273.082-550.097,273.082z"/>
	</g>
	<path d="M-517.559,329.451c0,27.786,26.937,50.312,60.163,50.312c6.648,0,13.049-0.906,19.03-2.575
		c0.343-0.091,1.021-0.296,1.021-0.296l21.739,11.084l-5.809-18.21c0,0,0.372-0.233,0.553-0.348
		c14.346-9.191,23.609-23.671,23.609-39.968c0-27.782-26.928-50.303-60.142-50.303
		C-490.622,279.148-517.559,301.669-517.559,329.451z M-444.919,312.124c0-4.512,3.777-8.17,8.442-8.17
		c4.674,0,8.452,3.658,8.452,8.17c0,4.521-3.778,8.184-8.452,8.184C-441.142,320.308-444.919,316.645-444.919,312.124z
		 M-486.783,312.124c0-4.512,3.782-8.17,8.447-8.17c4.669,0,8.452,3.658,8.452,8.17c0,4.521-3.782,8.184-8.452,8.184
		C-483.001,320.308-486.783,316.645-486.783,312.124z"/>
</symbol>

<symbol id="arrow-down" viewBox="67 220 178 178">
  <g transform="scale(0.1953125, 0.1953125)">
		<path d="M1203.519,1376.379c44.382-0.551,57.943,39.514,30.036,74.305l-391.364,474.765
			c-27.792,34.641-72.842,34.526-100.789-0.416l-378.941-474.349c-27.833-34.828-14.704-73.754,29.91-74.304h811.147V1376.379z"/>
	</g>
</symbol>

<symbol id="person" viewBox="73.7 -102.5 201 201">
  <g transform="scale(0.1953125, 0.1953125)">
    <path d="M886.44-25.28c66.133,0,119.894-52.8,119.894-117.76s-53.867-117.76-119.894-117.76
      c-66.133,0-119.894,52.8-119.894,117.76C766.547-78.08,820.307-25.28,886.44-25.28z M948.2,48.96H835.88
      c-87.894,0-159.36,70.187-159.36,156.374v11.093c0,23.68,88.32,23.68,159.36,23.68H948.2c59.627,0,159.36,0,159.36-23.68v-11.093
      C1107.561,119.147,1036.094,48.96,948.2,48.96z M892.094-522.241c-282.774,0-512.001,229.227-512.001,512.001
      s229.227,512.001,512.001,512.001s512.001-229.227,512.001-512.001S1174.868-522.241,892.094-522.241z M886.44-290.774
      c82.667,0,149.974,66.24,149.974,147.734S969.107,4.693,886.44,4.693S736.466-61.547,736.466-143.04
      C736.573-224.427,803.773-290.774,886.44-290.774z M1137.641,216.534c0,53.76-87.787,53.76-189.334,53.76H835.88
      c-105.814,0-189.334,0-189.334-53.76v-11.093c0-102.827,84.907-186.454,189.334-186.454H948.2
      c104.427,0,189.334,83.627,189.334,186.454v11.093H1137.641z"/>
  </g>
</symbol>

<symbol id="add" viewBox="66 490 201 201">
  <path d="M72.939,562.176l-2.355-0.857c-1.515,4.988-2.638,10.143-3.363,15.425l2.493,0.217
		C70.414,571.898,71.494,566.958,72.939,562.176z"/>
	<path d="M68.766,590.428c0-1.175,0.047-2.338,0.087-3.503l-2.495-0.218c-0.042,1.235-0.092,2.473-0.092,3.72
		c0,4.355,0.31,8.635,0.847,12.842l2.465-0.435C69.064,598.768,68.766,594.636,68.766,590.428z"/>
	<path d="M77.861,637.166c2.595,4.898,5.58,9.545,8.92,13.915l1.915-1.607c-3.203-4.203-6.07-8.67-8.568-13.367
		L77.861,637.166z"/>
	<path d="M99.706,519.213l-1.61-1.917c-3.89,3.628-7.485,7.562-10.755,11.765l2.05,1.435
		C92.534,526.471,95.981,522.696,99.706,519.213z"/>
	<path d="M68.884,613.116c1.198,5.163,2.787,10.173,4.75,14.993l2.27-1.06c-1.875-4.625-3.4-9.425-4.555-14.367
		L68.884,613.116z"/>
	<path d="M81.594,537.246c-2.925,4.647-5.49,9.54-7.63,14.662l2.35,0.855c2.06-4.915,4.525-9.615,7.33-14.083
		L81.594,537.246z"/>
	<path d="M144.439,495.413l-0.432-2.47c-5.312,1.208-10.465,2.833-15.417,4.85l1.057,2.272
		C134.404,498.138,139.346,496.578,144.439,495.413z"/>
	<path d="M263.846,568.581c-1.217-5.46-2.875-10.75-4.945-15.832l-2.272,1.06c1.98,4.885,3.575,9.965,4.747,15.207
		L263.846,568.581z"/>
	<path d="M166.266,492.928c1.175,0,2.34,0.047,3.503,0.087l0.217-2.495c-1.235-0.042-2.47-0.092-3.72-0.092
		c-4.205,0-8.34,0.29-12.41,0.792l0.435,2.465C158.219,493.206,162.209,492.928,166.266,492.928z"/>
	<path d="M254.669,543.688c-2.472-4.673-5.297-9.13-8.458-13.328l-1.915,1.607c3.023,4.028,5.727,8.302,8.105,12.778
		L254.669,543.688z"/>
	<path d="M237.888,524.291l1.918-1.607c-3.737-4.055-7.815-7.79-12.172-11.182l-1.435,2.05
		C230.379,516.816,234.291,520.401,237.888,524.291z"/>
	<path d="M219.449,505.758c-4.482-2.822-9.195-5.315-14.115-7.407l-0.86,2.355c4.72,2.013,9.238,4.4,13.54,7.1
		L219.449,505.758z"/>
	<path d="M195.946,494.908c-5.157-1.602-10.513-2.773-15.992-3.525l-0.22,2.495
		c5.263,0.728,10.398,1.855,15.357,3.388L195.946,494.908z"/>
	<path d="M95.166,657.108l-1.917,1.61c3.595,3.842,7.492,7.397,11.65,10.635l1.435-2.05
		C102.351,664.196,98.619,660.788,95.166,657.108z"/>
	<path d="M211.951,676.561l1.057,2.27c4.72-2.5,9.22-5.362,13.455-8.555l-1.61-1.917
		C220.789,671.418,216.471,674.158,211.951,676.561z"/>
	<polygon points="168.326,547.169 164.206,547.169 164.206,588.368 123.007,588.368 123.007,592.488
		164.206,592.488 164.206,633.687 168.326,633.687 168.326,592.488 209.525,592.488 209.525,588.368 168.326,588.368 	"/>
	<path d="M248.891,642.173l2.048,1.438c2.792-4.438,5.262-9.105,7.345-13.975l-2.357-0.86
		C253.926,633.443,251.564,637.913,248.891,642.173z"/>
	<path d="M259.391,619.393l2.353,0.86c1.62-5.205,2.807-10.6,3.568-16.138l-2.492-0.217
		C262.084,609.211,260.944,614.391,259.391,619.393z"/>
	<path d="M265.526,578.443l-2.462,0.435c0.445,3.79,0.703,7.64,0.703,11.55c0,1.175-0.048,2.34-0.088,3.503
		l2.492,0.217c0.045-1.235,0.095-2.472,0.095-3.72C266.266,586.368,265.999,582.376,265.526,578.443z"/>
	<path d="M232.521,661.938l1.607,1.915c4.01-3.703,7.705-7.742,11.065-12.055l-2.05-1.435
		C239.914,654.501,236.366,658.373,232.521,661.938z"/>
	<path d="M119.526,502.023c-4.845,2.568-9.455,5.52-13.788,8.818l1.607,1.918c4.165-3.165,8.59-5.995,13.238-8.468
		L119.526,502.023z"/>
	<path d="M113.084,675.098c4.605,2.898,9.45,5.448,14.52,7.575l0.855-2.35c-4.865-2.048-9.518-4.497-13.943-7.273
		L113.084,675.098z"/>
	<path d="M188.101,685.443l0.438,2.467c5.31-1.207,10.458-2.835,15.408-4.845l-1.062-2.273
		C198.134,682.721,193.194,684.278,188.101,685.443z"/>
	<path d="M166.266,687.928c-1.175,0-2.338-0.047-3.5-0.088l-0.218,2.492c1.235,0.045,2.47,0.095,3.718,0.095
		c4.21,0,8.347-0.29,12.417-0.795l-0.435-2.463C174.319,687.651,170.326,687.928,166.266,687.928z"/>
	<path d="M137.011,686.071c5.032,1.535,10.237,2.67,15.573,3.4l0.217-2.49c-5.112-0.708-10.105-1.8-14.932-3.268
		L137.011,686.071z"/>
</symbol>

<symbol id="stuq-cert" viewBox="387 488 212 212">
  <circle fill="none" stroke-miterlimit="10" cx="492.824" cy="594.116" r="105"/>
	<circle fill="none" stroke-miterlimit="10" cx="492.824" cy="594.116" r="70"/>
	<g>
		<g>
			<g>
				<g>
					<g>
						<path d="M549.463,599.468h-1.047c0.783,0.538,1.18,1.193,1.18,1.962c0,0.483-0.16,0.87-0.465,1.156
							c-0.304,0.295-0.721,0.437-1.241,0.437h-4.013v-1.012h3.687c0.42,0,0.715-0.065,0.889-0.181
							c0.18-0.123,0.261-0.329,0.261-0.612c0-0.624-0.404-1.209-1.218-1.75h-3.62v-1.012h5.586V599.468z"/>
					</g>
					<g>
						<path d="M549.283,592.866c0.209,0.673,0.312,1.245,0.312,1.734c0,0.827-0.275,1.491-0.824,2.017
							c-0.549,0.514-1.255,0.775-2.122,0.775c-0.85,0-1.545-0.227-2.085-0.689c-0.543-0.449-0.815-1.043-0.815-1.75
							c0-0.683,0.241-1.206,0.721-1.572c0.477-0.369,1.163-0.55,2.047-0.55l0.312,0.006v3.521c1.332-0.148,1.996-0.797,1.996-1.95
							c0-0.418-0.114-0.935-0.343-1.544H549.283z M546.07,596.319v-2.466c-1.038,0-1.562,0.384-1.562,1.153
							C544.507,595.793,545.032,596.224,546.07,596.319z"/>
					</g>
					<g>
						<path d="M549.463,588.12h-1.047c0.783,0.535,1.18,1.193,1.18,1.953c0,0.492-0.16,0.873-0.465,1.169
							c-0.304,0.28-0.721,0.424-1.241,0.424h-4.013v-1.006h3.687c0.42,0,0.715-0.065,0.889-0.185
							c0.18-0.123,0.261-0.326,0.261-0.612c0-0.615-0.404-1.2-1.218-1.744h-3.62v-1.021h5.586V588.12z"/>
					</g>
					<g>
						<path d="M549.283,581.509c0.209,0.673,0.312,1.258,0.312,1.741c0,0.824-0.275,1.491-0.824,2.005
							c-0.549,0.523-1.255,0.784-2.122,0.784c-0.85,0-1.545-0.225-2.085-0.686c-0.543-0.452-0.815-1.039-0.815-1.753
							c0-0.673,0.241-1.199,0.721-1.568c0.477-0.366,1.163-0.553,2.047-0.553l0.312,0.009v3.521c1.332-0.144,1.996-0.8,1.996-1.95
							c0-0.421-0.114-0.941-0.343-1.55H549.283z M546.07,584.962v-2.466c-1.038,0-1.562,0.391-1.562,1.159
							C544.507,584.439,545.032,584.876,546.07,584.962z"/>
					</g>
				</g>
				<g>
					<path d="M540.351,605.84c-1.202-0.523-2.334-1.242-3.347-2.137l-0.255-0.225l0.2-0.267
						c1.084-1.448,1.888-3.097,2.403-4.883c0.518-1.796,0.783-3.853,0.783-6.095c0-5.327-1.573-9.638-4.673-12.83
						c-3.095-3.198-7.275-4.81-12.416-4.81c-2.288,0-4.413,0.326-6.314,0.978c-1.893,0.649-3.61,1.63-5.113,2.925
						c-1.867,1.615-3.3,3.601-4.244,5.886c-0.941,2.297-1.422,4.939-1.422,7.851c0,5.326,1.567,9.638,4.661,12.818
						c3.091,3.174,7.271,4.785,12.433,4.785c1.69,0,3.307-0.181,4.814-0.538c1.502-0.357,2.895-0.876,4.142-1.553l0.246-0.145
						l0.195,0.218c1.155,1.267,2.525,2.291,4.073,3.038c1.482,0.713,3.141,1.178,4.947,1.372l2.285-5.431
						C542.555,606.627,541.414,606.311,540.351,605.84z M529.735,600.388c-1.602,1.975-3.849,2.98-6.69,2.98
						c-2.829,0-5.076-1.009-6.684-2.998c-1.585-1.962-2.391-4.699-2.391-8.137c0-3.426,0.809-6.169,2.405-8.149
						c1.616-2.002,3.861-3.02,6.67-3.02c2.82,0,5.071,1.015,6.672,2.995c1.594,1.962,2.402,4.714,2.402,8.174
						C532.119,595.695,531.316,598.441,529.735,600.388z"/>
				</g>
				<g>
					<path d="M458.054,592.819c-0.866-0.855-1.947-1.596-3.251-2.227c-1.299-0.643-2.834-1.279-4.588-1.928
						c-0.85-0.301-1.625-0.587-2.323-0.855c-0.706-0.277-1.322-0.594-1.857-0.932c-0.537-0.344-0.956-0.732-1.246-1.15
						c-0.291-0.418-0.443-0.941-0.443-1.565c0-1.043,0.4-1.817,1.199-2.316c0.798-0.504,2.376-1.098,4.739-0.664
						c1.553,0.292,2.84,0.923,4.227,2.663l5.272-4.198c-2.07-2.737-5.394-5.056-10.794-5.056c-1.925,0-3.646,0.234-5.179,0.707
						c-1.528,0.467-2.834,1.144-3.906,2.023c-1.078,0.886-1.908,1.947-2.494,3.204c-0.583,1.255-0.878,2.66-0.878,4.225
						c0,1.562,0.275,2.891,0.83,3.983c0.552,1.092,1.27,2.02,2.145,2.783c0.883,0.766,1.878,1.402,2.983,1.907
						c1.106,0.501,2.217,0.95,3.323,1.341c2.542,0.843,4.335,1.633,5.376,2.377c1.039,0.729,1.561,1.651,1.561,2.752
						c0,0.526-0.178,1.495-0.959,2.233c-0.749,0.698-2.182,1.359-4.516,1.285c-2.222-0.058-4.328-0.99-5.94-2.654l-5.466,4.367
						c2.194,2.583,5.714,4.782,11.406,4.782c4.467,0,7.805-0.867,10.021-2.614c2.211-1.734,3.318-4.185,3.318-7.353
						c0-1.621-0.206-3.008-0.629-4.148C459.558,594.652,458.916,593.659,458.054,592.819z"/>
				</g>
			</g>
			<g>
				<path d="M494.456,583.532v19.835c-0.455,0.062-0.976,0.123-1.561,0.172c-0.586,0.04-1.144,0.077-1.664,0.077
					c-1.69,0-2.697-0.55-3.467-1.565c-0.758-1.012-0.932-2.743-0.932-5.086v-8.46v-4.973v-0.006h-11.621l-2.093,4.979h6.44h4.258
					l-4.258,3.398v5.938c0,1.762,0.18,3.377,0.54,4.84c0.354,1.467,0.956,2.731,1.807,3.786c0.844,1.067,1.99,1.888,3.437,2.473
					c1.455,0.584,3.272,0.879,5.454,0.879c2.148,0,4.199-0.16,6.155-0.464c1.953-0.314,3.549-0.646,4.787-0.999v-24.824H494.456z"/>
			</g>
			<g>
				<path d="M472.614,603.592c-0.621-0.846-0.875-2.334-0.875-4.241v-10.846v-4.979v-7.036l-15.049,12.015h7.77
					v11.563c0,1.433,0.178,2.749,0.538,3.946c0.358,1.19,0.958,2.217,1.807,3.078c0.847,0.861,1.993,1.528,3.441,2.005
					c1.448,0.489,3.269,0.723,5.448,0.723c0.514,0,0.993-0.049,1.492-0.065v-5.031c-0.358,0.018-0.724,0.034-1.05,0.034
					C474.44,604.758,473.227,604.444,472.614,603.592z"/>
			</g>
		</g>
	</g>
	<g>
		<path d="M460.449,685.235l0.293-0.715l-8.066-3.308l-0.348,0.846l-1.756-0.72l4.533-11.06l10.93,4.48l-1.813,4.424
			l-9.173-3.761l-0.561,1.366l9.824,4.027l-2.107,5.14L460.449,685.235z M453.136,670.079l1.36-3.317l6.57,2.693
			c0.075-0.679,0.094-1.278,0.055-1.802l2.188,0.594c-0.011,0.147-0.017,0.348-0.019,0.6c-0.014,0.653-0.062,1.141-0.143,1.462
			l6.051,2.479l-1.36,3.318l-1.757-0.72l0.773-1.887l-11.255-4.614l-0.773,1.887L453.136,670.079z M461.996,681.462l-8.067-3.307
			l-0.747,1.821l8.067,3.308L461.996,681.462z M456.303,672.365l-0.693,1.691l7.416,3.04l0.693-1.691L456.303,672.365z"/>
		<path d="M475.25,677.024l0.201-1.816l7.617,0.844c-0.197-0.776-0.413-1.603-0.646-2.478l2.189,0.03
			c0.208,0.685,0.438,1.582,0.692,2.694l6.499,0.72l-0.201,1.817l-10.063-1.114c-0.093,0.838-0.238,1.719-0.434,2.64l8.176,0.905
			c-0.17,1.113-0.443,2.734-0.82,4.861c-0.109,0.554-0.176,0.947-0.201,1.181c-0.326,2.086-1.604,2.981-3.835,2.688
			c-0.419-0.046-0.958-0.083-1.615-0.108c-0.606-0.066-1.095-0.121-1.468-0.162c-0.011-0.332-0.07-0.856-0.18-1.576
			c-0.036-0.098-0.049-0.193-0.039-0.287c0.326,0.036,0.793,0.088,1.398,0.154c0.6,0.114,1.086,0.191,1.46,0.232
			c1.388,0.249,2.181-0.324,2.383-1.717c0.264-1.103,0.474-2.353,0.628-3.75l-6.221-0.689c-0.547,3.241-2.449,5.718-5.703,7.434
			l-1.375-1.638c3.182-1.487,4.957-3.884,5.323-7.192c0.237-1.294,0.403-2.36,0.496-3.199L475.25,677.024z"/>
		<path d="M502.718,689.374l-1.467-1.111c0.324-0.624,0.44-1.213,0.349-1.768l-0.861-5.203l-1.941,0.321
			l-0.287-1.734l3.746-0.619l1.044,6.312c0.323-0.339,0.968-1.182,1.934-2.529c0.245,0.625,0.529,1.194,0.853,1.711
			c-1.019,1.31-1.837,2.396-2.453,3.258C503.199,688.558,502.895,689.012,502.718,689.374z M502.245,677.907
			c-0.831-0.718-1.875-1.566-3.13-2.547l1.273-1.352c1.023,0.734,2.105,1.529,3.246,2.386L502.245,677.907z M506.508,689.887
			c-0.523-0.579-1.031-1.064-1.523-1.458c2.801-2.887,3.795-6.78,2.984-11.683c-0.084-0.509-0.195-1.322-0.333-2.439
			c-0.114-0.693-0.19-1.155-0.229-1.388l1.942-0.321c0.206,1.249,0.34,2.201,0.401,2.855c1.403,5.612,3.75,9.168,7.039,10.666
			c-0.115,0.161-0.277,0.474-0.486,0.936c-0.256,0.47-0.437,0.809-0.545,1.017c-2.672-1.505-4.619-3.939-5.84-7.301
			C509.898,684.101,508.762,687.139,506.508,689.887z"/>
		<path d="M524.123,672.554c-0.933-0.543-2.104-1.154-3.516-1.834l0.975-1.553c0.125,0.045,0.322,0.133,0.593,0.264
			c1.392,0.638,2.389,1.099,2.991,1.383L524.123,672.554z M528.179,683.236l-1.683-0.758c0.158-0.542,0.066-1.172-0.275-1.893
			l-2.199-4.638l-1.589,0.753l-0.753-1.588l3.24-1.537l2.893,6.099c0.044-0.124,0.145-0.405,0.301-0.843
			c0.201-0.666,0.359-1.155,0.471-1.469c0.402,0.743,0.789,1.338,1.158,1.786C529.321,680.231,528.801,681.594,528.179,683.236z
			 M525.492,670.191l-0.753-1.588l10.101-4.792l0.754,1.589l-3.621,1.718l1.929,4.065l3.177-1.507l0.723,1.524l-3.176,1.507
			l2.289,4.828l3.939-1.868l0.693,1.461l-11.244,5.334l-0.693-1.461l1.778-0.844l-3.827-8.068l1.652-0.783l3.826,8.068l2.16-1.025
			l-4.941-10.418L525.492,670.191z"/>
	</g>
	<g>
		<g>
			<path d="M400.018,579.627c0.833-3.793,3.353-5.513,7.557-5.164c4.045,0.831,5.867,3.237,5.468,7.224
				c-0.812,3.922-3.269,5.654-7.371,5.193C401.502,586.03,399.617,583.613,400.018,579.627z M411.488,581.512
				c0.28-2.654-1.135-4.284-4.246-4.887c-3.107-0.351-4.963,0.757-5.566,3.319c-0.191,2.627,1.244,4.26,4.308,4.896
				C409.051,585.185,410.885,584.075,411.488,581.512z"/>
			<path d="M406.787,560.657l-2.152,6.596l3.802,1.24l1.882-5.763l1.485,0.485l-1.882,5.764l5.348,1.745
				l-0.621,1.901l-12.18-3.977l2.773-8.495L406.787,560.657z"/>
			<path d="M412.589,548.341l-3.097,6.207l3.579,1.785l2.707-5.424l1.398,0.696l-2.707,5.426l5.033,2.512
				l-0.893,1.789l-11.465-5.721l3.989-7.997L412.589,548.341z"/>
			<path d="M424.383,550.617l-10.77-6.939l1.049-1.628l10.771,6.938L424.383,550.617z"/>
			<path d="M427.317,531.592l-0.854,1.811c-1.601-0.681-2.992-0.375-4.176,0.918
				c-1.442,1.996-1.016,4.059,1.281,6.184c2.482,1.901,4.59,1.974,6.322,0.215c1.246-1.563,1.185-3.186-0.184-4.865l1.672-1.13
				c1.779,2.292,1.684,4.623-0.287,6.994c-2.584,2.782-5.528,2.937-8.833,0.461c-3.104-2.85-3.527-5.829-1.27-8.938
				C422.758,531.244,424.867,530.694,427.317,531.592z"/>
			<path d="M436.858,535.241l-8.796-9.316l1.409-1.33l8.796,9.315L436.858,535.241z"/>
			<path d="M438.196,517.43l11.763,7.215l-1.704,1.271l-3.105-1.974l-4.562,3.397l1,3.54l-1.705,1.27l-3.541-13.338
				L438.196,517.43z M438.303,519.455l-0.051,0.037c0.124,0.376,0.248,0.752,0.371,1.127c0.017,0.093,0.493,1.813,1.432,5.167
				l3.76-2.8c-2.943-1.859-4.457-2.81-4.54-2.853c-0.024-0.033-0.092-0.087-0.2-0.163
				C438.609,519.694,438.352,519.522,438.303,519.455z"/>
			<path d="M459.578,519.534l-7.723,4.112l-6.022-11.309l1.71-0.911l5.316,9.985l6.015-3.202L459.578,519.534z"/>
			<path d="M475.291,504.715l-1.737,0.993c-0.921-1.476-2.237-2.023-3.947-1.644
				c-2.328,0.809-3.161,2.741-2.498,5.801c0.944,2.98,2.628,4.249,5.055,3.802c1.919-0.566,2.799-1.93,2.641-4.09l2.019,0.033
				c0.143,2.898-1.273,4.752-4.247,5.564c-3.714,0.797-6.214-0.766-7.501-4.69c-0.907-4.115,0.455-6.797,4.088-8.049
				C471.756,501.814,473.8,502.574,475.291,504.715z"/>
			<path d="M490.448,512.102l-9.762,1.001l-1.306-12.745l9.513-0.975l0.165,1.615l-7.523,0.772l0.39,3.792
				l7.088-0.727l0.165,1.616l-7.087,0.727l0.426,4.166l7.772-0.797L490.448,512.102z"/>
			<path d="M504.889,512.711l-2.495-0.147l-3.617-5.536l-2.933-0.173l-0.313,5.303l-1.934-0.114l0.756-12.791
				l5.928,0.353c2.864,0.253,4.31,1.569,4.336,3.95c-0.127,2.162-1.386,3.319-3.773,3.47L504.889,512.711z M496.194,500.927
				l-0.258,4.367l3.557,0.211c1.996,0.118,3.016-0.552,3.061-2.011c0.087-1.455-0.849-2.241-2.803-2.356L496.194,500.927z"/>
			<path d="M519.102,504.335l-4.273-0.938l-2.398,10.927l-1.893-0.414l2.398-10.929l-4.335-0.95l0.349-1.588
				l10.5,2.304L519.102,504.335z"/>
			<path d="M519.343,516.251l4.124-12.131l1.834,0.623l-4.124,12.131L519.343,516.251z"/>
			<path d="M537.572,511.77l-6.283-2.941l-1.695,3.623l5.489,2.57l-0.661,1.415l-5.491-2.569l-2.385,5.093
				l-1.812-0.847l5.432-11.604l8.095,3.79L537.572,511.77z"/>
			<path d="M535.63,523.643l6.675-10.937l1.654,1.01l-6.675,10.936L535.63,523.643z"/>
			<path d="M554.706,526.101l-1.831-0.809c0.643-1.617,0.302-3.001-1.02-4.151c-2.031-1.396-4.082-0.918-6.15,1.43
				c-1.84,2.529-1.86,4.638-0.061,6.326c1.595,1.208,3.214,1.106,4.859-0.302l1.171,1.643c-2.247,1.836-4.581,1.797-6.999-0.116
				c-2.846-2.515-3.071-5.454-0.676-8.819c2.772-3.171,5.74-3.668,8.902-1.486C554.942,521.535,555.544,523.631,554.706,526.101z"/>
			<path d="M564.736,531.297l-6.043,12.405l-1.429-1.573l1.663-3.283l-3.822-4.211l-3.428,1.339l-1.428-1.573
				l12.933-4.816L564.736,531.297z M562.73,531.598l-0.042-0.046c-0.361,0.159-0.723,0.318-1.085,0.479
				c-0.09,0.025-1.758,0.667-5.004,1.925l3.15,3.471c1.566-3.109,2.365-4.708,2.4-4.794c0.029-0.027,0.077-0.101,0.143-0.216
				C562.522,531.926,562.668,531.654,562.73,531.598z"/>
			<path d="M574.596,547.485l-2.403-3.655l-9.35,6.146l-1.063-1.62l9.349-6.145l-2.438-3.708l1.358-0.892
				l5.904,8.982L574.596,547.485z"/>
			<path d="M566.446,556.185l11.421-5.81l0.878,1.729l-11.421,5.807L566.446,556.185z"/>
			<path d="M583.254,562.252c1.068,3.733-0.33,6.445-4.195,8.136c-3.954,1.191-6.702-0.061-8.245-3.757
				c-1.148-3.838,0.19-6.528,4.019-8.073C578.904,557.324,581.711,558.556,583.254,562.252z M572.264,566.045
				c1.016,2.469,3.035,3.231,6.06,2.283c2.9-1.169,4.007-3.024,3.32-5.567c-1.08-2.401-3.119-3.155-6.117-2.261
				C572.664,561.656,571.577,563.504,572.264,566.045z"/>
			<path d="M586.423,573.33l0.377,2.282l-9.299,8.127l0.011,0.061l10.359-1.712l0.306,1.849l-12.642,2.091
				l-0.367-2.22l9.341-8.259l-10.421,1.722l-0.307-1.849L586.423,573.33z"/>
		</g>
	</g>
	<polygon points="415.68,626.801 413.949,630.755 409.71,631.569 412.935,634.438 412.4,638.721 416.125,636.54
		420.033,638.372 419.11,634.156 422.06,631.006 417.765,630.58 	"/>
	<polygon points="407.991,599.2 406.259,603.154 402.021,603.969 405.246,606.837 404.711,611.12 408.435,608.939
		412.343,610.771 411.42,606.555 414.371,603.405 410.076,602.98 	"/>
	<polygon points="431.85,651.658 430.118,655.611 425.879,656.426 429.104,659.294 428.569,663.577 432.294,661.397
		436.202,663.229 435.279,659.013 438.229,655.862 433.934,655.437 	"/>
	<g>
		<polygon points="572.385,626.801 574.117,630.755 578.355,631.569 575.13,634.438 575.665,638.721 571.94,636.54
			568.033,638.372 568.955,634.156 566.005,631.006 570.3,630.58 		"/>
		<polygon points="580.075,599.2 581.806,603.154 586.045,603.969 582.82,606.837 583.355,611.12 579.63,608.939
			575.722,610.771 576.645,606.555 573.695,603.405 577.99,602.98 		"/>
		<polygon points="556.216,651.658 557.948,655.611 562.186,656.426 558.961,659.294 559.496,663.577
			555.771,661.397 551.863,663.229 552.786,659.013 549.836,655.862 554.131,655.437 		"/>
	</g>
</symbol>

<symbol id="add-02" viewBox="386.5 202.5 201 201">
  <g transform="scale(0.1953125, 0.1953125)">
		<path d="M2493.337,1039.197c-282.753,0-512.001,229.249-512.001,512.001s229.249,512.001,512.001,512.001
			s512.001-229.249,512.001-512.001S2776.09,1039.197,2493.337,1039.197z M2749.338,1583.198h-224v224.001c0,17.664-14.336,32-32,32
			s-32-14.336-32-32v-224.001h-224c-17.664,0-32-14.336-32-32s14.336-32,32-32h224v-224.001c0-17.664,14.336-32,32-32
			s32,14.336,32,32v224.001h224c17.664,0,32,14.336,32,32S2767.002,1583.198,2749.338,1583.198z"/>
	</g>
</symbol>

<symbol id="close" viewBox="716.5 261 108 108">
  <g>
		<path d="M822.769,270.305l-7.202-7.262l-45.355,45.009l-44.996-44.994l-7.232,7.232l45.049,45.051l-45.049,45.051
			l7.232,7.232l44.996-44.994l45.355,45.009l7.202-7.262l-45.382-45.037L822.769,270.305z M822.769,270.305"/>
		<path d="M815.567,368.64c-0.264,0-0.517-0.104-0.704-0.29l-44.648-44.309l-44.292,44.29
			c-0.391,0.391-1.023,0.391-1.414,0l-7.231-7.231c-0.391-0.391-0.391-1.023,0-1.414l44.342-44.345l-44.342-44.344
			c-0.391-0.391-0.391-1.023,0-1.414l7.231-7.232c0.375-0.375,1.039-0.375,1.414,0l44.292,44.29l44.648-44.308
			c0.188-0.186,0.44-0.29,0.704-0.29c0.001,0,0.003,0,0.004,0c0.266,0.001,0.52,0.107,0.706,0.296l7.201,7.262
			c0.389,0.392,0.387,1.025-0.006,1.414l-44.666,44.326l44.666,44.326c0.393,0.389,0.395,1.022,0.006,1.414l-7.201,7.263
			c-0.187,0.188-0.44,0.295-0.706,0.296C815.57,368.64,815.568,368.64,815.567,368.64z M770.212,321.63
			c0.255,0,0.51,0.097,0.704,0.29l44.646,44.306l5.793-5.843l-44.672-44.332c-0.189-0.188-0.296-0.443-0.296-0.71
			s0.106-0.522,0.296-0.71l44.672-44.332l-5.793-5.842l-44.646,44.305c-0.39,0.388-1.021,0.387-1.411-0.003l-44.289-44.287
			l-5.817,5.818l44.342,44.344c0.391,0.391,0.391,1.023,0,1.414l-44.342,44.345l5.817,5.817l44.289-44.287
			C769.7,321.728,769.956,321.63,770.212,321.63z"/>
	</g>
</symbol>

<symbol id="tag" viewBox="678 -78 173 173">
  <path d="M810.849-76.931h-26.378c-16.078,0-21.915,2.13-32.974,13.189L685.55,2.206
		c-7.781,7.782-9.635,23.339,0,32.974l52.758,52.758c5.202,5.203,11.534,6.595,17.107,6.595c6.7,0,12.312-3.041,15.867-6.595
		l65.947-65.947c11.487-11.488,13.189-17.78,13.189-32.974v-26.378C850.418-67.316,840.803-76.931,810.849-76.931L810.849-76.931z
		 M804.255-10.984c-10.908,0-19.784-8.876-19.784-19.784c0-10.907,8.876-19.784,19.784-19.784c10.907,0,19.783,8.877,19.783,19.784
		C824.039-19.86,815.162-10.984,804.255-10.984L804.255-10.984z M804.255-10.984"/>
</symbol>

<symbol id="mobile" viewBox="955.8 -100.5 201 201">
  <g transform="scale(0.1953125, 0.1953125)">
		<path d="M5408.018-512.189c-282.778,0-512.001,229.233-512.001,511.991c0,282.768,229.223,512.012,512.001,512.012
			c282.768,0,512.001-229.233,512.001-512.012C5920.02-282.955,5690.786-512.189,5408.018-512.189z M5629.612,245.491
			c0,38.974-34.97,70.892-77.056,70.892h-289.097c-42.066,0-77.036-31.908-77.036-70.892v-491.368
			c0-38.779,34.97-70.871,77.036-70.871h289.097c42.076,0,77.056,32.092,77.056,70.871V245.491z M5408.223,238.723
			c-14.51,0-27.484,11.1-27.484,25.037c0,13.937,12.964,24.996,27.484,24.996c15.299,0,27.085-11.049,27.085-24.996
			C5435.297,249.823,5423.511,238.723,5408.223,238.723z M5243.297-240.296h329.452v453.797h-329.452
			C5243.297,213.501,5243.297-240.296,5243.297-240.296z M5366.546-265.455h82.955c3.83,0,6.902-2.867,6.902-6.38
			c0-3.533-3.072-6.38-6.902-6.38h-82.955c-3.809,0-6.912,2.857-6.912,6.38C5359.634-268.322,5362.737-265.455,5366.546-265.455z"/>
	</g>
</symbol>

<symbol id="job" viewBox="1240.2 -100.5 201 201">
  <path d="M1340.66-99.958c-55.229,0-100.001,44.771-100.001,100.001c0,55.229,44.772,99.999,100.001,99.999
		c55.229,0,99.999-44.771,99.999-99.999C1440.659-55.186,1395.889-99.958,1340.66-99.958L1340.66-99.958z M1322.755-66.203h33.575
		l-7.231,30.476h-19.887l-6.457-29.443V-66.203L1322.755-66.203z M1339.543,66.288l-32.542-27.377l22.211-68.699h20.145
		l21.953,69.474L1339.543,66.288L1339.543,66.288z M1383.448,21.349h-9.233l-14.012-40.031l23.244,30.993V21.349L1383.448,21.349z
		 M1383.448,21.349"/>
</symbol>

<symbol id="star" viewBox="378.9 -112 201 201">
  <g transform="scale(0.1953125, 0.1953125)">
		<path d="M2416.881-524.599c20.204-41.463,53.248-41.463,73.449,0l97.219,199.559
			c20.199,41.467,73.681,80.824,118.84,87.479l217.387,32.003c45.155,6.65,55.376,38.484,22.694,70.757L2789.163,20.548
			c-32.682,32.268-53.105,95.961-45.387,141.526l37.134,219.35c7.718,45.565-19.027,65.25-59.413,43.733l-194.45-103.56
			c-40.386-21.52-106.493-21.52-146.884,0l-194.445,103.561c-40.392,21.516-67.127,1.831-59.413-43.733l37.134-219.349
			c7.718-45.565-12.705-109.257-45.387-141.526l-157.307-155.35c-32.682-32.272-22.461-64.107,22.694-70.757l217.391-32.003
			c45.16-6.654,98.636-46.012,118.84-87.479L2416.881-524.599z"/>
	</g>
</symbol>

</defs>
</svg>
