<?xml version="1.0" encoding="utf-8"?>
<!-- Generator: Adobe Illustrator 17.0.0, SVG Export Plug-In . SVG Version: 6.00 Build 0)  -->
<!DOCTYPE svg PUBLIC "-//W3C//DTD SVG 1.1//EN" "http://www.w3.org/Graphics/SVG/1.1/DTD/svg11.dtd">
<svg version="1.1" id="图层_1" xmlns="http://www.w3.org/2000/svg" xmlns:xlink="http://www.w3.org/1999/xlink" x="0px" y="0px"
	 width="957.096px" height="319.448px" viewBox="0 0 957.096 319.448" enable-background="new 0 0 957.096 319.448"
	 xml:space="preserve">
<g>
	<g>
		<g>
			<g>
				<g>
					<path fill="#A8A7A3" d="M953.206,211.017h-8.791c6.576,4.567,9.88,10.016,9.88,16.491c0,4.019-1.329,7.291-3.883,9.674
						c-2.557,2.452-6.032,3.715-10.424,3.715h-33.662v-8.484h30.968c3.475,0,5.927-0.544,7.462-1.566
						c1.465-1.022,2.18-2.725,2.18-5.111c0-5.247-3.408-10.152-10.257-14.718h-30.354v-8.449h46.88V211.017z"/>
				</g>
				<g>
					<path fill="#A8A7A3" d="M951.705,155.622c1.737,5.659,2.589,10.494,2.589,14.582c0,6.918-2.316,12.437-6.914,16.899
						c-4.601,4.291-10.529,6.541-17.82,6.541c-7.085,0-12.946-1.908-17.474-5.861c-4.532-3.712-6.817-8.652-6.817-14.649
						c0-5.69,2.014-10.086,6.032-13.117c4.019-3.168,9.779-4.734,17.206-4.734l2.589,0.066v29.608
						c11.209-1.193,16.76-6.712,16.76-16.39c0-3.475-0.953-7.835-2.896-12.946H951.705z M924.69,184.581v-20.677
						c-8.687,0-13.082,3.234-13.082,9.674C911.608,180.22,916.003,183.9,924.69,184.581z"/>
				</g>
				<g>
					<path fill="#A8A7A3" d="M953.206,115.764h-8.791c6.576,4.497,9.88,10.051,9.88,16.421c0,4.155-1.329,7.291-3.883,9.81
						c-2.557,2.386-6.032,3.611-10.424,3.611h-33.662v-8.481h30.968c3.475,0,5.927-0.513,7.462-1.5
						c1.465-1.057,2.18-2.829,2.18-5.146c0-5.212-3.408-10.082-10.257-14.715h-30.354v-8.519h46.88V115.764z"/>
				</g>
				<g>
					<path fill="#A8A7A3" d="M951.705,60.299c1.737,5.69,2.589,10.564,2.589,14.649c0,6.953-2.316,12.538-6.914,16.798
						c-4.601,4.427-10.529,6.607-17.82,6.607c-7.085,0-12.946-1.873-17.474-5.721c-4.532-3.817-6.817-8.756-6.817-14.753
						c0-5.655,2.014-10.016,6.032-13.149c4.019-3.066,9.779-4.633,17.206-4.633l2.589,0.066v29.503
						c11.209-1.158,16.76-6.712,16.76-16.351c0-3.475-0.953-7.87-2.896-13.016H951.705z M924.69,89.328V68.682
						c-8.687,0-13.082,3.203-13.082,9.674C911.608,84.897,916.003,88.543,924.69,89.328z"/>
				</g>
			</g>
			<g>
				<path fill="#E50012" d="M876.756,264.505c-10.121-4.392-19.624-10.424-28.108-17.952l-2.146-1.807l1.702-2.348
					c9.095-12.095,15.807-25.893,20.168-40.848c4.294-15.127,6.576-32.434,6.576-51.206c0-44.665-13.218-80.88-39.247-107.725
					C809.708,15.84,774.686,2.314,731.521,2.314c-19.215,0-37.032,2.658-53.013,8.177c-15.873,5.484-30.285,13.696-42.889,24.528
					c-15.639,13.56-27.665,30.253-35.605,49.399c-7.902,19.215-11.956,41.462-11.956,65.924c0,44.665,13.183,80.81,39.111,107.554
					c25.959,26.608,61.016,40.133,104.386,40.133c14.136,0,27.731-1.566,40.37-4.497c12.569-3,24.323-7.392,34.75-13.051l2.076-1.19
					l1.636,1.839c9.678,10.63,21.19,19.215,34.171,25.484c12.468,5.927,26.402,9.88,41.529,11.512l19.18-45.547
					C895.221,271.182,885.68,268.423,876.756,264.505z M787.667,218.717c-13.424,16.557-32.298,25.142-56.146,25.142
					c-23.747,0-42.586-8.585-56.076-25.279c-13.323-16.452-20.101-39.414-20.101-68.237c0-28.788,6.813-51.715,20.168-68.377
					c13.595-16.829,32.434-25.345,56.01-25.345c23.677,0,42.516,8.446,56.006,25.142c13.358,16.452,20.136,39.519,20.136,68.579
					C807.664,179.369,800.917,202.432,787.667,218.717z"/>
			</g>
			<g>
				<path fill="#E50012" d="M186.153,155.283c-7.256-7.225-16.32-13.424-27.291-18.671c-10.933-5.449-23.744-10.797-38.532-16.215
					c-7.12-2.487-13.592-4.905-19.418-7.19c-5.962-2.282-11.139-4.975-15.636-7.801c-4.532-2.896-8.041-6.133-10.459-9.677
					c-2.456-3.541-3.715-7.902-3.715-13.149c0-8.655,3.373-15.263,10.051-19.418c6.747-4.225,19.965-9.199,39.791-5.589
					c13.017,2.452,23.813,7.769,35.43,22.418L200.7,44.764c-17.411-23.028-45.314-42.45-90.589-42.45
					c-16.149,0-30.63,1.978-43.507,5.927c-12.81,3.886-23.747,9.608-32.741,17.035c-9.06,7.361-16.013,16.285-20.918,26.845
					C8.041,62.65,5.554,74.403,5.554,87.555c0,13.117,2.316,24.256,6.949,33.386c4.633,9.199,10.63,16.965,18.057,23.37
					c7.393,6.475,15.706,11.788,25.006,16.083c9.266,4.155,18.566,7.902,27.867,11.24c21.329,7.089,36.386,13.696,45.108,19.896
					c8.756,6.133,13.117,13.832,13.117,23.168c0,4.294-1.535,12.503-8.041,18.671c-6.304,5.892-18.329,11.411-37.953,10.797
					c-18.636-0.509-36.317-8.31-49.807-22.247L0,258.543c18.399,21.636,47.902,40.168,95.665,40.168
					c37.51,0,65.513-7.357,84.114-22.01c18.605-14.513,27.871-35.089,27.871-61.661c0-13.56-1.737-25.212-5.317-34.82
					C198.757,170.612,193.374,162.268,186.153,155.283z"/>
			</g>
		</g>
		<g>
			<path fill="#E50012" d="M491.609,77.299v166.561c-3.817,0.443-8.209,0.921-13.117,1.364c-4.87,0.373-9.604,0.614-13.934,0.614
				c-14.241,0-22.62-4.567-29.126-13.117c-6.339-8.484-7.804-22.997-7.804-42.62v-71.067V77.299v-0.066H330.09l-17.51,41.801h53.997
				h35.741l-35.741,28.551v49.807c0,14.785,1.535,28.345,4.532,40.611c3,12.332,8.006,22.892,15.127,31.82
				c7.155,8.924,16.728,15.807,28.889,20.712c12.231,4.908,27.462,7.361,45.789,7.361c17.99,0,35.193-1.364,51.614-3.886
				c16.421-2.655,29.776-5.449,40.203-8.38V77.299H491.609z"/>
		</g>
		<g>
			<path fill="#E50012" d="M308.321,245.632c-5.178-7.051-7.358-19.519-7.358-35.532v-91.067V77.232V18.191l-126.26,100.842h65.174
				v97.029c0,12.06,1.5,23.063,4.532,33.114c2.996,9.946,8.072,18.601,15.192,25.858c7.089,7.221,16.728,12.81,28.858,16.829
				c12.161,4.089,27.424,6.032,45.753,6.032c4.26,0,8.313-0.377,12.468-0.513v-42.209c-2.997,0.101-6.063,0.272-8.823,0.272
				C323.653,255.445,313.466,252.787,308.321,245.632z"/>
		</g>
	</g>
</g>
</svg>
