<?xml version="1.0" encoding="utf-8"?>
<!-- Generator: Adobe Illustrator 17.0.0, SVG Export Plug-In . SVG Version: 6.00 Build 0)  -->
<!DOCTYPE svg PUBLIC "-//W3C//DTD SVG 1.1//EN" "http://www.w3.org/Graphics/SVG/1.1/DTD/svg11.dtd">
<svg version="1.1" id="图层_1" xmlns="http://www.w3.org/2000/svg" xmlns:xlink="http://www.w3.org/1999/xlink" x="0px" y="0px"
	 width="1068.107px" height="318.277px" viewBox="0 0 1068.107 318.277" enable-background="new 0 0 1068.107 318.277"
	 xml:space="preserve">
<g>
	<g>
		<g>
			<path fill="#A8A6A1" d="M1067.569,201.157h-8.076c6.063,4.158,9.098,9.266,9.098,15.162c0,3.782-1.228,6.712-3.544,8.994
				c-2.386,2.18-5.588,3.304-9.608,3.304h-30.899v-7.766h28.376c3.237,0,5.519-0.548,6.883-1.5c1.395-0.886,2.044-2.522,2.044-4.668
				c0-4.769-3.168-9.231-9.402-13.525h-27.902v-7.699h43.029V201.157z"/>
		</g>
		<g>
			<path fill="#A8A6A1" d="M1066.24,150.192c1.566,5.247,2.351,9.744,2.351,13.525c0,6.335-2.114,11.516-6.339,15.535
				c-4.224,4.019-9.709,5.962-16.386,5.962c-6.541,0-11.924-1.772-16.013-5.383c-4.26-3.408-6.304-7.971-6.304-13.424
				c0-5.247,1.807-9.196,5.554-12.126c3.681-2.794,8.927-4.26,15.776-4.26l2.453,0.07v27.187
				c10.187-1.127,15.298-6.203,15.298-15.095c0-3.133-0.886-7.221-2.592-11.99H1066.24z M1041.436,176.901v-18.975
				c-8.006,0-11.99,3.032-11.99,8.889C1029.446,172.882,1033.43,176.22,1041.436,176.901z"/>
		</g>
		<g>
			<path fill="#A8A6A1" d="M1067.569,113.704h-8.076c6.063,4.12,9.098,9.165,9.098,15.057c0,3.851-1.228,6.813-3.544,8.962
				c-2.386,2.247-5.588,3.405-9.608,3.405h-30.899v-7.835h28.376c3.237,0,5.519-0.408,6.883-1.43
				c1.395-0.956,2.044-2.452,2.044-4.668c0-4.804-3.168-9.231-9.402-13.49h-27.902v-7.87h43.029V113.704z"/>
		</g>
		<g>
			<path fill="#A8A6A1" d="M1066.24,62.771c1.566,5.247,2.351,9.677,2.351,13.354c0,6.405-2.114,11.586-6.339,15.605
				c-4.224,3.953-9.709,5.997-16.386,5.997c-6.541,0-11.924-1.772-16.013-5.317c-4.26-3.541-6.304-7.971-6.304-13.525
				c0-5.212,1.807-9.196,5.554-12.025c3.681-2.93,8.927-4.326,15.776-4.326l2.453,0.066v27.155
				c10.187-1.193,15.298-6.168,15.298-15.06c0-3.269-0.886-7.256-2.592-11.924H1066.24z M1041.436,89.413V70.439
				c-8.006,0-11.99,2.962-11.99,8.924C1029.446,85.394,1033.43,88.628,1041.436,89.413z"/>
		</g>
	</g>
	<g>
		<path fill="#175E9F" d="M70.69,289.464H1.19V6.831h69.5V289.464z"/>
	</g>
	<g>
		<path fill="#175E9F" d="M116.272,289.464V79.362h63.604v19.522c8.142-8.177,17.412-14.275,27.665-18.364
			c10.323-4.054,21.874-6.098,34.649-6.098c22.927,0,39.927,7.291,51.101,21.738c11.209,14.443,16.763,36.655,16.763,66.5v126.804
			h-63.538V165.727c0-14.174-2.522-24.598-7.494-31.206c-5.01-6.677-12.981-10.016-23.782-10.016
			c-12.775,0-21.839,3.133-27.253,9.301c-5.418,6.164-8.111,16.759-8.111,31.921v123.738H116.272z"/>
	</g>
	<g>
		<path fill="#175E9F" d="M356.558,289.464V122.935H324.26V84.508h32.298c-0.408-4.361-0.648-7.528-0.75-9.472
			c-0.035-1.908-0.101-3.68-0.101-5.282c0-22.247,5.449-38.26,16.285-48.206c10.901-9.813,28.652-14.718,53.386-14.718
			c5.414,0,10.933,0.408,16.557,0.956c5.656,0.611,11.547,1.702,17.611,3.133v44.016h-10.661c-11.652,0-19.386,1.43-23.133,4.225
			c-3.782,2.997-5.656,8.722-5.656,17.237v8.111h39.449v38.427h-39.449v166.529H356.558z"/>
	</g>
	<g>
		<path fill="#175E9F" d="M574.46,296.278c-34.101,0-61.528-10.187-82.276-30.661c-20.851-20.443-31.206-47.459-31.206-81.082
			c0-33.456,10.424-60.541,31.342-81.152c20.817-20.579,48.174-30.867,82.139-30.867c34.307,0,61.867,10.222,82.617,30.731
			c20.782,20.611,31.206,47.696,31.206,81.288c0,33.487-10.459,60.437-31.411,80.946C636.02,286.021,608.495,296.278,574.46,296.278
			z M525.979,184.534c0,19.076,4.431,34.338,13.187,45.652c8.787,11.174,20.54,16.864,35.294,16.864
			c14.719,0,26.437-5.69,35.329-17.07c8.823-11.244,13.253-26.472,13.253-45.446c0-19.149-4.396-34.443-13.152-45.687
			c-8.788-11.38-20.611-17.07-35.43-17.07c-14.617,0-26.301,5.725-35.158,17.241C530.41,150.394,525.979,165.591,525.979,184.534z"
			/>
	</g>
	<g>
		<path fill="#09843C" d="M931.942,278.699c-10.493,5.756-22.079,10.152-34.82,13.117c-12.674,2.962-26.13,4.462-40.269,4.462
			c-43.538,0-78.323-13.354-104.453-40.234c-26.098-26.848-39.181-62.652-39.181-107.523c0-24.459,4.022-46.367,11.994-65.785
			c7.971-19.351,19.86-35.842,35.702-49.535c12.639-10.902,26.984-19.044,43.029-24.598c16.048-5.519,33.627-8.177,52.874-8.177
			c43.37,0,78.19,13.459,104.285,40.405c26.2,27.051,39.282,62.893,39.282,107.69c0,18.772-2.146,35.671-6.506,51
			c-4.396,15.162-11.143,28.757-20.237,40.988c8.174,7.187,17.101,12.911,26.744,17.202c9.674,4.225,20.067,6.949,31.035,8.108
			l-21.225,50.421c-16.044-1.566-30.696-5.519-43.845-11.921C953.233,298.05,941.686,289.531,931.942,278.699z M856.818,237.065
			c22.519,0,40.102-7.801,52.706-23.37c12.639-15.605,18.943-37.272,18.943-65.174c0-27.867-6.339-49.636-19.044-65.377
			c-12.643-15.706-30.221-23.576-52.605-23.576c-22.247,0-39.721,8.006-52.497,23.782c-12.779,15.807-19.149,37.576-19.149,65.171
			c0,27.7,6.37,49.298,19.013,65.038C816.926,229.195,834.404,237.065,856.818,237.065z"/>
	</g>
	<g>
		<path fill="#107F3B" d="M973.642,240.509c9.095-12.231,15.842-25.826,20.237-40.988c2.041-7.323,3.611-14.987,4.664-23.098
			c-24.835,1.263-49.329,2.452-73.418,3.614c-3.063,13.354-8.209,24.595-15.601,33.658c-12.604,15.57-30.187,23.37-52.706,23.37
			c-22.414,0-39.892-7.87-52.633-23.506c-6.238-7.699-10.871-16.965-14.038-27.665c-24.494,1.092-48.719,1.978-72.738,2.759
			c5.659,26.541,17.241,49.092,34.991,67.39c26.13,26.88,60.915,40.234,104.453,40.234c14.139,0,27.595-1.5,40.269-4.462
			c12.74-2.965,24.327-7.361,34.82-13.117c9.744,10.832,21.291,19.351,34.408,25.62c13.149,6.402,27.801,10.354,43.845,11.921
			l21.225-50.421c-10.968-1.158-21.36-3.883-31.035-8.108C990.743,253.42,981.816,247.695,973.642,240.509z"/>
	</g>
	<g>
		<path fill="#04589A" d="M609.789,229.98c-8.892,11.38-20.611,17.07-35.329,17.07c-14.753,0-26.507-5.69-35.294-16.864
			c-7.393-9.541-11.652-21.975-12.811-37.206c-21.668,0.412-43.301,0.513-65.003,0.579c1.737,29.437,11.924,53.491,30.832,72.057
			c20.747,20.475,48.174,30.661,82.276,30.661c34.035,0,61.56-10.257,82.412-30.798c19.86-19.487,30.183-44.7,31.205-75.839
			c-21.905,0.614-43.573,1.298-65.241,1.772C621.884,207.22,617.59,220.167,609.789,229.98z"/>
	</g>
	<g>
		<path fill="#04589A" d="M356.558,289.464h63.538v-95.972c-21.089-0.035-42.247-0.171-63.538-0.614V289.464z"/>
	</g>
	<g>
		<path fill="#04589A" d="M116.272,289.464h63.604V188.008c-20.949-0.921-42.143-1.908-63.604-3.032V289.464z"/>
	</g>
	<g>
		<path fill="#04589A" d="M246.516,289.464h63.538v-97.402c-21.022-0.377-42.177-0.956-63.538-1.636V289.464z"/>
	</g>
	<g>
		<path fill="#04589A" d="M1.19,289.464h69.5V182.521c-22.826-1.326-45.994-2.791-69.5-4.392V289.464z"/>
	</g>
</g>
</svg>
