<?xml version="1.0" encoding="utf-8"?>
<!-- Generator: Adobe Illustrator 17.0.0, SVG Export Plug-In . SVG Version: 6.00 Build 0)  -->
<!DOCTYPE svg PUBLIC "-//W3C//DTD SVG 1.1//EN" "http://www.w3.org/Graphics/SVG/1.1/DTD/svg11.dtd">
<svg version="1.1" id="图层_1" xmlns="http://www.w3.org/2000/svg" xmlns:xlink="http://www.w3.org/1999/xlink" x="0px" y="0px"
	 width="644px" height="317.333px" viewBox="0 0 644 317.333" enable-background="new 0 0 644 317.333" xml:space="preserve">
<g>
	<g id="XMLID_415_">
		<path id="XMLID_422_" fill="#231815" d="M188.782,173.759l-38.83,11.788v-45.441l104.196-31.923v192.963
			c-30.962,9.915-133.928,28.934-189.937-12.621C0.792,241.473-1.425,170.595,5.567,127.71
			C20.91,33.604,107.093,4.601,151.839,0.872c24.549-2.046,57.537-3.792,102.308,7.683v56.631
			c-39.401-10.569-126.024-15.83-163.681,36.952c-26.851,37.635-13.569,92.158,3.836,115.118
			c27.934,36.849,89.137,32.57,94.282,31.511L188.782,173.759z"/>
		<path id="XMLID_420_" fill="#231815" d="M548.755,315.224h-65.118V56.091h-93.576V0.051h251.481v56.04h-92.787V315.224z"/>
		<polygon id="XMLID_419_" fill="#E95529" points="303.217,0.051 303.217,83.202 368.335,103.062 368.335,0.051 		"/>
		<polygon id="XMLID_417_" fill="#231815" points="303.217,315.224 368.335,315.224 368.335,128.265 303.217,108.406 		"/>
	</g>
</g>
</svg>
