<?xml version="1.0" encoding="utf-8"?>
<!-- Generator: Adobe Illustrator 17.0.0, SVG Export Plug-In . SVG Version: 6.00 Build 0)  -->
<!DOCTYPE svg PUBLIC "-//W3C//DTD SVG 1.1//EN" "http://www.w3.org/Graphics/SVG/1.1/DTD/svg11.dtd">
<svg version="1.1" id="图层_1" xmlns="http://www.w3.org/2000/svg" xmlns:xlink="http://www.w3.org/1999/xlink" x="0px" y="0px"
	 width="506.777px" height="324.032px" viewBox="0 0 506.777 324.032" enable-background="new 0 0 506.777 324.032"
	 xml:space="preserve">
<g>
	<g>
		<path fill="#727171" d="M233.564,172.743v39.823l35.844-25.084v57.991c0,21.658-14.115,31.968-30.515,31.968
			c-16.436,0-30.551-10.31-30.551-31.968V78.841c0-21.725,14.115-31.83,30.551-31.83c16.4,0,30.515,10.104,30.515,31.83v28.407
			l44.91-31.521c-1.555-49.197-39.443-73.969-75.425-73.969c-36.744,0-75.808,25.775-75.808,77.083v166.631
			c0,51.344,39.064,77.083,75.808,77.083s75.737-25.739,75.737-77.083v-129.54L233.564,172.743z"/>
	</g>
	<g>
		<path fill="#727171" d="M1.821,4.454h134.727v42.558H47.043v92.587h77.952v42.487H47.043v92.655h89.505v45.257H1.821V4.454z"/>
	</g>
	<g>
		<path fill="#727171" d="M427.664,1.758c-36.017,0-73.902,24.772-75.493,73.969l44.907,31.521V78.841
			c0-21.725,14.119-31.83,30.586-31.83c16.365,0,30.551,10.104,30.551,31.83v166.631c0,21.658-14.186,31.968-30.551,31.968
			c-16.468,0-30.586-10.31-30.586-31.968v-97.916l-45.218-31.624v129.54c0,51.344,39.025,77.083,75.804,77.083
			c36.744,0,75.737-25.739,75.737-77.083V78.841C503.401,27.532,464.407,1.758,427.664,1.758z"/>
	</g>
</g>
</svg>
